<svg height="48" viewBox="0 0 175 48" width="175" xmlns="http://www.w3.org/2000/svg"><g fill="#788ca1"><path d="m44.7050193 24.0195247c0-7.1904477-5.6468761-13.0195232-13.0197375-13.0195232-4.7198454-.0012882-9.0705682 2.5522164-11.3707841 6.6735618l6.3426682 6.3459614c0-2.7741477 2.3413091-5.0233909 5.0233909-5.0233909 2.7742909 0 5.0233909 2.2489568 5.0233909 5.0233909 0 2.7742909-2.2491 5.0233909-5.0233909 5.0233909h-10.818675c-2.6842295-.0010023-4.8610227 2.1743591-4.8618818 4.8585887v.0048681 3.1327918h15.6852818c7.145775.044556 12.97485-5.7119259 13.0197375-12.8577009 0-.0539795 0-.107959 0-.1619386"/><path d="m90.6242159 20.1133815c-1.2693068-1.4870863-3.2085614-2.3428841-5.5578886-2.3428841-5.0347023 0-9.0618341 4.0173955-9.0618341 9.8206978 0 5.8403863 4.0271318 9.9320931 8.9132113 9.9320931 2.6110637 0 4.6618569-1.1529 5.9663864-3.0502022l.2245091 2.5658182h4.6244864v-26.0389043h-2.178225c-1.6168091-.0018594-2.9289273 1.3073952-2.9306455 2.9242043zm-4.5132341 12.611025c-2.8725136 0-4.8441273-2.0457818-4.8441273-5.0959841 0-3.0503454 1.9764819-5.0961272 4.8441273-5.0961272 2.8677887 0 4.8441273 2.0457818 4.8441273 5.0961272 0 3.1243705-2.0134227 5.0959841-4.8441273 5.0959841zm-26.5847113-19.8690545-9.5267455 24.1835523h5.7806795l2.0409137-5.4496432h11.2190113l2.0361887 5.4496432h5.7806795l-10.2598363-26.0389037h-4.3419887c-1.2044454-.0011441-2.2869.7348105-2.7289022 1.8553514zm.1825568 13.6750091 3.71385-9.9498478 3.71385 9.9498478zm59.3617497 1.1012113c0-5.8033022 4.251641-9.8497636 10.106489-9.8497636 5.855134 0 10.145434 4.0045091 10.145434 9.8497636 0 5.8452546-4.290443 9.8950091-10.145434 9.8950091-5.854848 0-10.106489-4.0594909-10.106489-9.8950091zm14.955628 0c0-3.0131181-1.937823-5.0961272-4.844128-5.0961272-2.906591 0-4.844127 2.0460681-4.844127 5.0961272 0 3.0502023 1.937536 5.0959841 4.844127 5.0959841 2.906305 0 4.844128-2.0457818 4.844128-5.0959841zm16.166515 8.7194864c-1.068995.6927136-2.328422 1.1755227-3.688077 1.1755227-3.754227 0-5.498038-2.5673932-5.498038-6.210225v-16.8075409l5.147672-1.277325v18.1139318c0 1.0206.492403 1.6485955 1.406475 1.6485955.299393-.0064432.594491-.0717341.868684-.1920068zm8.989098 0c-1.068995.6927136-2.328423 1.1755227-3.688077 1.1755227-3.754227 0-5.490021-2.5673932-5.490021-6.210225v-18.9471068l5.13808-1.2400977v20.2162704c0 1.0206.493977 1.6485955 1.40805 1.6485955.299393-.0065864.594491-.0720205.868827-.1920068zm-51.687061-8.7970909h-3.505664v9.4849364h-5.4463498v-23.1147c.0027204-1.6170955 1.3152682-2.9260637 2.9323638-2.9242043h8.741966c5.6322 0 9.061834 3.390977 9.061834 8.257727 0 3.9058568-2.199273 6.8817477-6.003471 7.9233954l6.781807 9.8577819h-6.528375zm-3.505664-5.0589h6.077925c2.351046 0 3.581407-1.1172477 3.581407-3.1986818 0-2.1216682-1.230361-3.2374841-3.581407-3.2374841h-6.077925z"/></g></svg>