<?xml version="1.0" encoding="UTF-8"?>
<svg width="72px" height="60px" viewBox="0 0 72 60" version="1.1" xmlns="http://www.w3.org/2000/svg" xmlns:xlink="http://www.w3.org/1999/xlink">
    <!-- Generator: Sketch 64 (93537) - https://sketch.com -->
    <title>Group</title>
    <desc>Created with Sketch.</desc>
    <defs>
        <linearGradient x1="100%" y1="84.7222222%" x2="0%" y2="15.2777778%" id="linearGradient-1">
            <stop stop-color="#1877F2" offset="0%"></stop>
            <stop stop-color="#7793FF" offset="100%"></stop>
        </linearGradient>
    </defs>
    <g id="Page-1" stroke="none" stroke-width="1" fill="none" fill-rule="evenodd">
        <g id="Group">
            <path d="M15.9537933,1.32351803 C22.4152759,0.441172678 29.0973448,0 36,0 C42.9026553,0 49.5847242,0.441172683 56.0462068,1.32351805 C64.4807412,2.47529285 70.9551571,9.37832689 71.5646329,17.8692924 C71.8548776,21.9128616 72,25.9564308 72,30 C72,34.0435693 71.8548776,38.0871385 71.5646329,42.1307078 C70.955157,50.6216732 64.480741,57.5247073 56.0462067,58.676482 C49.5847241,59.5588273 42.9026552,60 36,60 C29.0973447,60 22.4152758,59.5588273 15.9537932,58.676482 C7.51925884,57.5247072 1.04484292,50.6216731 0.435367065,42.1307076 C0.145122355,38.0871384 0,34.0435692 0,30 C0,25.9564307 0.145122358,21.9128615 0.435367075,17.8692922 C1.03625888,9.49791784 7.3380445,2.67005942 15.598582,1.37559563 L15.9537933,1.32351803 Z" id="Rectangle" fill="url(#linearGradient-1)"></path>
            <path d="M55,22 C56.6568542,22 58,23.3431458 58,25 L58,47 C58,48.6568542 56.6568542,50 55,50 L17,50 C15.3431458,50 14,48.6568542 14,47 L14,25 C14,23.3431458 15.3431458,22 17,22 L55,22 Z M46,33 L26,33 C24.9456382,33 24.0818349,33.8158778 24.0054857,34.8507377 L24,35 L24,40 C24,41.0543618 24.8158778,41.9181651 25.8507377,41.9945143 L26,42 L46,42 C47.0543618,42 47.9181651,41.1841222 47.9945143,40.1492623 L48,40 L48,35 C48,33.8954305 47.1045695,33 46,33 Z M42,36 C42.5128358,36 42.9355072,36.3860402 42.9932723,36.8833789 L43,37 L43,38 L42.9932723,38.1166211 C42.9399506,38.575703 42.575703,38.9399506 42.1166211,38.9932723 L42,39 L30,39 L29.8833789,38.9932723 C29.424297,38.9399506 29.0600494,38.575703 29.0067277,38.1166211 L29,38 L29,37 L29.0067277,36.8833789 C29.0600494,36.424297 29.424297,36.0600494 29.8833789,36.0067277 L30,36 L42,36 Z M19,9 C21.7614237,9 24,11.2385763 24,14 C24,16.7614237 21.7614237,19 19,19 C16.2385763,19 14,16.7614237 14,14 C14,11.2385763 16.2385763,9 19,9 Z M38,15 C38.5522847,15 39,15.4477153 39,16 L39,17 C39,17.5522847 38.5522847,18 38,18 L28,18 C27.4477153,18 27,17.5522847 27,17 L27,16 C27,15.4477153 27.4477153,15 28,15 L38,15 Z M50,10 C50.5522847,10 51,10.4477153 51,11 L51,12 C51,12.5522847 50.5522847,13 50,13 L28,13 C27.4477153,13 27,12.5522847 27,12 L27,11 C27,10.4477153 27.4477153,10 28,10 L50,10 Z" id="Glyph" fill="#FFFFFF"></path>
        </g>
    </g>
</svg>