<svg fill="none" height="46" viewBox="0 0 184 46" width="184" xmlns="http://www.w3.org/2000/svg"><g fill="#212221"><path d="m67.7532 9.7627c1.6808 0 3.0584.19304 4.1606.5791 1.1021.3861 2.0113.9101 2.6726 1.6271.6613.7171 1.1297 1.572 1.4328 2.5924.2755 1.0203.4133 2.151.4133 3.3645v11.7482c-.7991.1654-1.9287.3861-3.3615.6343s-3.1962.3585-5.2351.3585c-1.295 0-2.4522-.1103-3.4993-.331-1.047-.2206-1.9562-.6067-2.7002-1.1307-.7715-.5239-1.3501-1.1858-1.7358-2.0407-.4133-.8274-.6062-1.8477-.6062-3.0612 0-1.1583.2204-2.1511.6888-2.9508.4685-.7998 1.1022-1.4616 1.8737-1.9305.7715-.4688 1.6807-.8273 2.7002-1.0479 1.0194-.2207 2.0665-.331 3.141-.331.744 0 1.3777.0276 1.9563.0828.5786.0551 1.0195.1379 1.3777.2482v-.524c0-.9652-.3031-1.7374-.8817-2.3166-.5787-.5791-1.5981-.8825-3.0309-.8825-.9643 0-1.9012.0828-2.838.2207s-1.7358.3309-2.4246.5791l-.7164-4.5504c.3306-.1103.7439-.2206 1.2399-.3309.4959-.1103 1.0194-.2206 1.5981-.3033.5786-.08278 1.1847-.16551 1.846-.22067.6337-.02758 1.2675-.08273 1.9287-.08273zm.4684 16.5468c.5511 0 1.0746 0 1.5981-.0276.496-.0276.9093-.0552 1.2124-.1103v-4.2746c-.2205-.0552-.5787-.1103-1.0195-.1655-.4684-.0551-.8817-.0827-1.2399-.0827-.5235 0-1.0195.0276-1.4879.0827-.4684.0552-.8817.1931-1.2399.3585-.3581.1655-.6337.4137-.8266.7171-.1928.3033-.303.6894-.303 1.1307 0 .8824.303 1.4892.8817 1.8477.5786.3585 1.3776.524 2.4246.524z"/><path d="m86.7098 4.55031c0 1.04796-.3306 1.84772-.9919 2.45444-.6613.60671-1.4603.88249-2.3696.88249-.9092 0-1.7083-.30336-2.3695-.88249-.6613-.60672-.992-1.40648-.992-2.45444s.3307-1.84772.992-2.45444c.6612-.60671 1.4603-.88249 2.3695-.88249.9093 0 1.7083.30336 2.3696.88249.6613.57914.9919 1.40648.9919 2.45444zm-.5235 25.70259h-5.6484v-19.9388h5.6484z"/><path d="m103.049 15.3057c-.496-.1379-1.102-.2482-1.791-.3861s-1.4053-.2206-2.2044-.2206c-.3582 0-.7715.0275-1.2674.0827-.496.0551-.8542.1379-1.1297.2206v15.2506h-5.6484v-18.8909c1.0195-.3585 2.2042-.6894 3.5819-.9928 1.3777-.3033 2.9206-.46881 4.6014-.46881.3031 0 .6613.02758 1.1026.05516.44.02757.854.08275 1.295.16545.44.0552.854.1379 1.295.2206.44.0828.799.1931 1.102.331z"/><path d="m125.505 20.2975c0 1.5996-.221 3.0336-.689 4.3298-.469 1.2961-1.157 2.3993-2.039 3.3093-.882.9101-1.984 1.5995-3.251 2.096-1.295.4964-2.756.7446-4.409.7446-.689 0-1.405-.0276-2.149-.0828-.744-.0551-1.488-.1379-2.204-.2482-.717-.1103-1.406-.2206-2.067-.3585s-1.24-.2758-1.736-.4412v-24.70987l5.649-4.440048v10.286618c.633-.2758 1.295-.4965 1.984-.6343.688-.16551 1.405-.22066 2.204-.22066 1.405 0 2.672.24816 3.747.74456s1.984 1.1859 2.728 2.096c.744.91 1.295 2.0132 1.681 3.2817.358 1.241.551 2.6751.551 4.247zm-5.759-.1654c0-3.6403-1.35-5.4605-4.023-5.4605-.578 0-1.157.0828-1.736.2207-.578.1654-1.019.3309-1.377.5791v10.2866c.275.0551.633.0827 1.074.1379.441.0275.91.0551 1.406.0551 1.542 0 2.7-.524 3.499-1.5995.744-1.0755 1.157-2.482 1.157-4.2194z"/><path d="m136.085 9.7627c1.681 0 3.058.19304 4.161.5791 1.102.3861 2.011.9101 2.672 1.6271.662.7171 1.13 1.572 1.433 2.5924.276 1.0203.413 2.151.413 3.3645v11.7482c-.799.1654-1.928.3861-3.361.6343s-3.196.3585-5.235.3585c-1.295 0-2.452-.1103-3.5-.331-1.047-.2206-1.956-.6067-2.7-1.1307-.771-.5239-1.35-1.1858-1.736-2.0407-.413-.8274-.606-1.8477-.606-3.0612 0-1.1583.221-2.1511.689-2.9508.468-.7998 1.102-1.4616 1.874-1.9305.771-.4688 1.68-.8273 2.7-1.0479 1.019-.2207 2.066-.331 3.141-.331.744 0 1.378.0276 1.956.0828.579.0551 1.02.1379 1.378.2482v-.524c0-.9652-.303-1.7374-.882-2.3166-.578-.5791-1.598-.8825-3.031-.8825-.964 0-1.901.0828-2.838.2207-.936.1379-1.735.3309-2.424.5791l-.717-4.5504c.331-.1103.744-.2206 1.24-.3309s1.02-.2206 1.598-.3033c.579-.08278 1.185-.16551 1.846-.22067.634-.02758 1.268-.08273 1.929-.08273zm.468 16.5468c.552 0 1.075 0 1.599-.0276.496-.0276.909-.0552 1.212-.1103v-4.2746c-.221-.0552-.579-.1103-1.02-.1655-.468-.0551-.881-.0827-1.239-.0827-.524 0-1.02.0276-1.488.0827-.469.0552-.882.1931-1.24.3585-.358.1655-.634.4137-.827.7171-.193.3033-.303.6894-.303 1.1307 0 .8824.303 1.4892.882 1.8477.551.3585 1.377.524 2.424.524z"/><path d="m154.794 26.1989c1.047 0 1.763-.1103 2.204-.3033.441-.1931.634-.6068.634-1.1859 0-.4688-.276-.8549-.827-1.1858-.551-.331-1.405-.7171-2.535-1.1583-.882-.331-1.681-.6619-2.397-1.0204s-1.322-.7722-1.846-1.2686c-.496-.4964-.909-1.0755-1.185-1.765-.275-.6894-.413-1.5168-.413-2.4544 0-1.8753.689-3.3645 2.094-4.4401 1.378-1.0755 3.306-1.62706 5.731-1.62706 1.212 0 2.37.11031 3.499.33096 1.102.2206 1.984.4412 2.645.6894l-.992 4.4125c-.661-.2206-1.377-.4413-2.149-.6067-.771-.1655-1.625-.2758-2.59-.2758-1.763 0-2.645.4964-2.645 1.4892 0 .2206.028.4413.11.6067.083.1655.221.3585.469.524.22.1655.523.3309.937.524.385.193.881.4137 1.487.6343 1.24.4688 2.26.91 3.059 1.3513.799.4412 1.433.9376 1.901 1.434.468.524.799 1.1032.992 1.7099.193.6343.276 1.3513.276 2.2062 0 1.958-.744 3.4473-2.205 4.4676-1.488 1.0204-3.582 1.5168-6.282 1.5168-1.763 0-3.251-.1654-4.408-.4688-1.185-.3034-1.984-.5516-2.453-.7722l.937-4.5779c.965.3861 1.956.6894 2.948.8825 1.02.2206 2.012.3309 3.004.3309z"/><path d="m165.236 20.4354c0-1.765.276-3.3094.827-4.6607.551-1.3238 1.267-2.4269 2.149-3.3094s1.901-1.5443 3.058-2.0132c1.158-.46878 2.342-.6894 3.555-.6894 2.838 0 5.07.8549 6.723 2.5923s2.452 4.2746 2.452 7.6391c0 .3309 0 .6895-.028 1.0755-.027.3861-.055.7447-.082 1.048h-12.812c.137 1.1583.661 2.0959 1.625 2.7578.965.6895 2.26 1.0204 3.858 1.0204 1.047 0 2.066-.0827 3.058-.2758.992-.193 1.819-.4137 2.452-.6894l.772 4.5779c-.303.1655-.717.3034-1.213.4688-.495.1655-1.074.2758-1.68.3861s-1.295.2206-1.984.2758c-.716.0827-1.405.1103-2.122.1103-1.791 0-3.361-.2758-4.684-.7998-1.322-.5239-2.424-1.2685-3.306-2.1786s-1.516-2.0132-1.929-3.2818c-.496-1.2134-.689-2.5923-.689-4.0539zm13.253-2.1511c-.027-.4688-.11-.9377-.248-1.4065-.137-.4688-.358-.8549-.633-1.2134-.303-.3585-.662-.6343-1.102-.8825-.441-.2206-.992-.331-1.654-.331-.633 0-1.184.1104-1.625.331-.469.2206-.827.4964-1.13.8549s-.523.7722-.689 1.241c-.165.4688-.275.9377-.358 1.4341h7.439z"/></g><path d="m17.6891 46-17.6891-14.9197v-26.14385l17.8269 15.02995 25.3489-19.9664.0276 25.8957zm.1378-9.0456 18.3504-14.4508v-8.0252l-18.4882 14.5612-10.66304-8.9904v7.7769z" fill="#ff6448"/></svg>