<?xml version="1.0" encoding="UTF-8"?>
<svg width="76px" height="76px" viewBox="0 0 76 76" version="1.1" xmlns="http://www.w3.org/2000/svg" xmlns:xlink="http://www.w3.org/1999/xlink">
    <!-- Generator: Sketch 64 (93537) - https://sketch.com -->
    <title>alerts-plain</title>
    <desc>Created with Sketch.</desc>
    <defs>
        <linearGradient x1="0%" y1="0%" x2="100%" y2="100%" id="linearGradient-1">
            <stop stop-color="#FF7A59" offset="0%"></stop>
            <stop stop-color="#FDCC50" offset="100%"></stop>
        </linearGradient>
    </defs>
    <g id="Page-1" stroke="none" stroke-width="1" fill="none" fill-rule="evenodd">
        <g id="Products----White---Blue-Title" transform="translate(-89.000000, -1053.000000)">
            <g id="alerts-plain" transform="translate(89.000000, 1053.000000)">
                <circle id="Oval" fill="url(#linearGradient-1)" cx="38" cy="38" r="38"></circle>
                <g id="Group-4" transform="translate(12.500000, 20.000000)"></g>
                <g id="Bell" transform="translate(18.000000, 15.000000)" fill="#FFFFFF">
                    <path d="M1.60891519,32.3675246 L1.6089155,32.3675245 C3.53343038,31.8621469 4.90897994,30.1543151 5.00481342,28.1513158 L6.59840188,14.6387312 L6.59840159,14.6387335 C7.26098986,9.17965304 11.1401014,4.6708993 16.4061977,3.23897417 L16.4061976,3.23897508 C16.6295299,1.23775406 18.419437,-0.201999401 20.4040592,0.0231981195 C22.0809906,0.21348347 23.4044599,1.54801826 23.5931633,3.23897508 L23.593164,3.23897526 C28.8592875,4.67078123 32.7385255,9.17940664 33.4013237,14.6384596 L34.9948213,28.1510442 L34.9948213,28.1510458 C35.0909357,30.1540635 36.4665589,31.8618045 38.3910829,32.3672545 L38.3910829,32.3672545 C39.5481391,32.6792769 40.235273,33.8780497 39.9258368,35.0447831 C39.6693818,36.0117565 38.7945708,36.6797132 37.8020097,36.6666164 L2.19735281,36.6666164 L2.19735269,36.6666164 C0.999734145,36.6822966 0.0161182601,35.7161865 0.000183934764,34.5085514 C-0.0126731471,33.5077988 0.649709213,32.6258279 1.60855221,32.3672545 L1.60891519,32.3675246 Z M19.9992714,44.0000385 L19.9992715,44.0000385 C17.1650385,44.0061508 14.7954007,41.8286804 14.5388902,38.9824668 L14.5388902,38.9824668 C14.5252601,38.7301148 14.7170857,38.514402 14.9673437,38.5006585 C14.9776626,38.5000918 14.9879977,38.4998806 14.9983309,38.4999765 L25.0003939,38.4999765 L25.0003939,38.4999765 C25.2510473,38.4963635 25.4571856,38.6982886 25.460865,38.9510384 C25.460865,38.9615186 25.460865,38.9720011 25.4601983,38.982467 L25.4601984,38.9824657 C25.2035479,41.8288352 22.8336682,44.0063037 19.9992716,44.0000385 L19.9992714,44.0000385 Z" id="Shape"></path>
                </g>
            </g>
        </g>
    </g>
</svg>