<svg height="30" width="32" xmlns="http://www.w3.org/2000/svg" xmlns:xlink="http://www.w3.org/1999/xlink"><radialGradient id="a" cx="49.992%" cy="49.998%" r="49.998%"><stop offset="0" stop-color="#ffb900"/><stop offset=".6" stop-color="#f95d8f"/><stop offset="1" stop-color="#f95353"/></radialGradient><mask id="b" fill="#fff"><path d="m15.988 0a6.934 6.934 0 0 0 .023 13.867 6.933 6.933 0 1 0 .022-13.867zm2.096 22.533a6.933 6.933 0 0 0 13.866 0 6.933 6.933 0 0 0 -13.866 0m-18.013 0a6.934 6.934 0 0 0 13.867 0 6.933 6.933 0 0 0 -6.934-6.933 6.933 6.933 0 0 0 -6.933 6.933" fill="#fff" fill-rule="evenodd"/></mask><path d="m15.997-4a20 20 0 1 1 .005 40 20 20 0 0 1 -.005-40z" fill="url(#a)" mask="url(#b)"/></svg>