<svg height="48" viewBox="0 0 175 48" width="175" xmlns="http://www.w3.org/2000/svg"><g fill="#788ca1" transform="translate(.327119 12.327043)"><path d="m6.34319978 9.86982016c-.12921726-.16908975-.33741074-.25834838-.54897653-.2353623-.21156579.02298609-.3957323.15487363-.48562085.34776866l-5.24246254 10.48164798c-.09710305.1942266-.08672315.4248818.02743316.6096014s.3158127.2971664.5329601.297187h7.29985955c.23887088.0055457.45855686-.1302485.56039326-.3463952 1.57467227-3.2538857.62036516-8.2014045-2.14358615-11.15444754z"/><path d="m10.1882841.33625274c-2.65748049 4.08901155-2.9641942 9.27562373-.80716297 13.64934456l3.51933517 7.0386704c.1061254.2122732.3230697.3463952.5603933.3463952h7.2985487c.2171474 0 .4188038-.1124674.5329601-.297187s.1245362-.4153748.0274331-.6096014c0 0-9.8190074-19.64030902-10.0657771-20.13155434-.0995579-.20404407-.3070633-.33315388-.5340987-.33232016-.2270354.00084182-.4335823.1314795-.5316316.33625274z"/><path d="m95.7963833 8.74051304c0 2.59550566 1.2040262 4.65617976 5.9136237 5.56591756 2.809831.5898877 3.398408 1.0434457 3.398408 1.9800562 0 .9097379-.589888 1.4986423-2.568961 1.4986423-2.391959-.0430068-4.7360965-.6773121-6.823361-1.8463483v4.2275281c1.4183521.6957397 3.2912454 1.4717697 6.769944 1.4717697 4.923595 0 6.877107-2.1956929 6.877107-5.4587547m0 0c0-3.0772472-1.632351-4.5224719-6.234785-5.5121723-2.542088-.5620318-3.1575375-1.12373594-3.1575375-1.92663856 0-1.0159176.9097375-1.444897 2.5955055-1.444897 2.033802 0 4.04073.61544944 5.940496 1.47176966v-4.04073034c-1.82166-.82913178-3.805645-1.24050712-5.806788-1.20402621-4.5490169 0-6.9036517 1.98005618-6.9036517 5.21788389"/><path d="m159.051346 3.79004488v17.58061802h3.746114v-13.40617982l1.578933 3.55866102 5.298174 9.8475188h4.709597v-17.58061802h-3.746114v11.34583332l-1.418352-3.291573-4.254729-8.05426032z"/><path d="m131.130325 3.790045h4.094148v17.580618h-4.094148z"/><path d="m126.406308 16.1793239c0-3.0772472-1.63235-4.5224719-6.234784-5.5121723-2.542088-.5620318-3.157538-1.12373594-3.157538-1.92663856 0-1.0159176.909738-1.444897 2.595506-1.444897 2.033801 0 4.04073.61544944 5.940496 1.47176966v-4.04073034c-1.82166-.82913178-3.805645-1.24050712-5.806788-1.20402621-4.549017 0-6.903652 1.98005618-6.903652 5.21788389 0 2.59550566 1.204026 4.65617976 5.913624 5.56591756 2.809831.5898877 3.398408 1.0434457 3.398408 1.9800562 0 .9097379-.589888 1.4986423-2.568961 1.4986423-2.391959-.0430068-4.736097-.6773121-6.823361-1.8463483v4.2275281c1.418352.6957397 3.291245 1.4717697 6.769944 1.4717697 4.923595 0 6.877106-2.1956929 6.877106-5.4587547"/><path d="m63.9919357 3.79004488v17.58061802h8.4150749l1.3249532-3.7998596h-5.6193352v-13.78075842z"/><path d="m47.3662803 3.79004488v3.79953183h4.5490169v13.78108619h4.1206928v-13.78108619h4.8701779v-3.79953183z"/><path d="m41.3910462 3.79004488h-5.4004213l-6.1305712 17.58061802h4.6817416l.8691011-2.9609083c2.1404587.6285118 4.4164702.6285118 6.5569289 0l.8691011 2.9609083h4.6827247zm-2.7003745 11.44939582c-.7626275 0-1.521327-.109191-2.2530431-.3241149l2.2530431-7.67214422 2.2530431 7.67476592c-.7318449.2140369-1.4905419.3222961-2.2530431.3214932z"/><path d="m86.914314 3.79004488h-5.4000936l-6.1305712 17.58061802h4.6827247l.8691012-2.9609083c2.1404586.6285118 4.4164702.6285118 6.5569288 0l.8691011 2.9609083h4.6827247zm-2.7000468 11.44939582c-.7626275 0-1.521327-.109191-2.2530431-.3241149l2.2530431-7.67214422 2.2530431 7.67476592c-.7318449.2140369-1.4905419.3222961-2.2530431.3214932z"/><path d="m149.977563 3.79004488h-5.400094l-6.130571 17.58061802h4.682725l.869101-2.9609083c2.140459.6285118 4.41647.6285118 6.556929 0l.869101 2.9609083h4.683053zm-2.701685 11.44939582c-.762628 0-1.521327-.109191-2.253043-.3241149l2.253043-7.67214422 2.253043 7.67476592c-.731845.2140369-1.490542.3222961-2.253043.3214932z"/></g></svg>