<svg width="32" height="32" xmlns="http://www.w3.org/2000/svg"><defs><linearGradient x1="80.814%" y1="15.814%" x2="43.702%" y2="97.439%" id="a"><stop stop-color="#0052CC" offset="0%"/><stop stop-color="#2684FF" offset="92.3%"/></linearGradient></defs><g fill-rule="nonzero" fill="none"><path d="M9.28 14.438a.89.89 0 0 0-1.514.165L.096 29.936a.917.917 0 0 0 .82 1.326h10.68c.349.008.67-.19.819-.506 2.303-4.76.907-11.998-3.136-16.318z" fill="url(#a)"/><path d="M14.904.492a20.225 20.225 0 0 0-1.18 19.967l5.148 10.297c.155.31.472.506.82.506h10.676a.917.917 0 0 0 .82-1.326S16.824 1.205 16.463.486a.866.866 0 0 0-1.559.006z" fill="#2684FF"/></g></svg>