<svg height="18" viewBox="0 0 9 18" width="9" xmlns="http://www.w3.org/2000/svg"><path d="m374.42428 62.6876153 7.191971-5.8680955c.330666-.2690126.46003-.6612896.339362-1.0290642-.120668-.3677745-.473036-.6551728-.92437-.7539348-.451334-.0987619-.933066.0061168-1.263732.2751295l-6.26747 5.1141074-6.26747-5.1141074c-.511166-.4158869-1.339431-.4154817-1.849982.000905-.510552.4163867-.510055 1.0910777.001111 1.5069645l7.191775 5.8680955c.245007.1999942.577614.3123847.924468.3123847.346853 0 .679461-.1123905.924468-.3123847z" fill="#d7dfe7" transform="matrix(0 -1 1 0 -54.5 382.5)"/></svg>