<svg height="165" viewBox="0 0 153 165" width="153" xmlns="http://www.w3.org/2000/svg" xmlns:xlink="http://www.w3.org/1999/xlink"><linearGradient id="a" x1="0%" x2="100%" y1="46.201468%" y2="46.201468%"><stop offset="0" stop-color="#17bcc7"/><stop offset="1" stop-color="#17c3c1"/></linearGradient><path d="m7.5 50.5c4.1421356 0 7.5 3.3578644 7.5 7.5v49.5c0 4.142136-3.3578644 7.5-7.5 7.5-4.14213562 0-7.5-3.357864-7.5-7.5v-49.5c0-4.1421356 3.35786438-7.5 7.5-7.5zm23-20.5c4.1421356 0 7.5 3.3578644 7.5 7.5v91c0 4.142136-3.3578644 7.5-7.5 7.5s-7.5-3.357864-7.5-7.5v-91c0-4.1421356 3.3578644-7.5 7.5-7.5zm23-12c4.1421356 0 7.5 3.3578644 7.5 7.5v114c0 4.142136-3.3578644 7.5-7.5 7.5s-7.5-3.357864-7.5-7.5v-114c0-4.1421356 3.3578644-7.5 7.5-7.5zm23-18c4.1421356 0 7.5 3.35786438 7.5 7.5v150c0 4.142136-3.3578644 7.5-7.5 7.5s-7.5-3.357864-7.5-7.5v-150c0-4.14213562 3.3578644-7.5 7.5-7.5zm23 27c4.142136 0 7.5 3.3578644 7.5 7.5v96c0 4.142136-3.357864 7.5-7.5 7.5-4.1421356 0-7.5-3.357864-7.5-7.5v-96c0-4.1421356 3.3578644-7.5 7.5-7.5zm46 24c4.142136 0 7.5 3.3578644 7.5 7.5v49c0 4.142136-3.357864 7.5-7.5 7.5s-7.5-3.357864-7.5-7.5v-49c0-4.1421356 3.357864-7.5 7.5-7.5zm-23-37c4.142136 0 7.5 3.3578644 7.5 7.5v122c0 4.142136-3.357864 7.5-7.5 7.5s-7.5-3.357864-7.5-7.5v-122c0-4.1421356 3.357864-7.5 7.5-7.5z" fill="url(#a)" fill-rule="evenodd"/></svg>