<svg height="236" viewBox="0 0 688 236" width="688" xmlns="http://www.w3.org/2000/svg" xmlns:xlink="http://www.w3.org/1999/xlink"><mask id="a" fill="#fff"><path d="m.06.348h236.513v235.652h-236.513z" fill="#fff" fill-rule="evenodd"/></mask><g fill="none" fill-rule="evenodd"><path d="m236.573 123.809c0-19.827-12.294-37.161-30.794-43.906.813-4.179 1.238-8.359 1.238-12.712 0-36.856-29.987-66.843-66.849-66.843-21.532 0-41.563 10.326-54.149 27.726-6.189-4.801-13.789-7.432-21.717-7.432-19.565 0-35.482 15.917-35.482 35.481 0 4.323.772 8.461 2.219 12.366-18.393 6.637-31.039 24.377-31.039 44.079 0 19.929 12.353 37.341 30.937 44.038-.789 4.132-1.22 8.395-1.22 12.706 0 36.773 29.915 66.688 66.688 66.688 21.585 0 41.604-10.368 54.119-27.84 6.23 4.891 13.848 7.576 21.747 7.576 19.564 0 35.481-15.911 35.481-35.476 0-4.323-.771-8.466-2.218-12.371 18.392-6.631 31.039-24.378 31.039-44.08" fill="#fffffe" mask="url(#a)"/><g fill="#788ca1"><path d="m93.009 101.838 51.765 23.599 52.229-45.762c.756-3.775 1.125-7.539 1.125-11.478 0-32.198-26.19-58.394-58.389-58.394-19.262 0-37.228 9.484-48.148 25.387l-8.687 45.071z"/><path d="m39.426 156.655c-.756 3.775-1.143 7.691-1.143 11.653 0 32.281 26.266 58.547 58.553 58.547 19.42 0 37.474-9.572 48.377-25.639l8.622-44.918-11.506-21.988-51.971-23.687z"/><path d="m39.098 67.072 35.475 8.376 7.773-40.334c-4.847-3.705-10.832-5.733-16.987-5.733-15.417 0-27.955 12.544-27.955 27.96 0 3.406.569 6.671 1.694 9.731"/><path d="m36.018 75.521c-15.85 5.252-26.87 20.446-26.87 37.157 0 16.273 10.065 30.804 25.171 36.554l49.772-44.989-9.139-19.525z"/><path d="m154.313 201.215c4.865 3.74 10.82 5.78 16.899 5.78 15.416 0 27.955-12.539 27.955-27.955 0-3.4-.569-6.665-1.694-9.725l-35.446-8.294z"/><path d="m161.525 151.729 39.022 9.127c15.856-5.24 26.876-20.44 26.876-37.157 0-16.243-10.088-30.757-25.223-36.49l-51.039 44.714z"/><path d="m326.372 130.528c0-9.997-1.605-17.06-4.809-21.191-3.206-4.129-8.422-6.194-15.648-6.194-7.228 0-12.66 2.176-16.3 6.521-3.642 4.347-5.516 11.302-5.623 20.864zm4.401 35.37 4.727-.488.326 9.617c-12.388 1.736-22.983 2.607-31.785 2.607-11.736 0-20.049-3.394-24.939-10.187-4.89-6.79-7.335-17.36-7.335-31.703 0-28.579 11.354-42.869 34.067-42.869 10.974 0 19.178 3.071 24.613 9.208 5.433 6.141 8.15 15.787 8.15 28.933l-.652 9.291h-53.79c0 9.022 1.63 15.704 4.89 20.049 3.26 4.348 8.937 6.52 17.033 6.52 8.094 0 16.326-.326 24.695-.978z"/><path d="m355.644 177.005h12.225v-107.026h-12.225z"/><path d="m394.652 152.37c0 9.999 4.129 14.996 12.388 14.996 7.389 0 14.67-1.248 21.842-3.749l3.749-1.305v-26.895l-24.124 2.283c-4.89.435-8.422 1.848-10.595 4.237-2.175 2.392-3.26 5.868-3.26 10.433zm50.204-33.252v41.111c0 4.074 10.145 3.912 10.145 3.912l-.624 10.801c-8.585 0-15.694.712-19.965-3.417-9.78 4.346-19.548 6.109-29.328 6.109-7.498 0-13.203-2.119-17.115-6.356-3.912-4.238-5.868-10.323-5.868-18.257 0-7.931 2.009-13.773 6.031-17.522 4.019-3.749 10.323-6.056 18.908-6.927l25.591-2.446v-7.008c0-5.542-1.197-9.508-3.586-11.9-2.392-2.388-5.651-3.586-9.78-3.586l-32.12.027v-10.784h31.305c9.235 0 15.946 2.119 20.131 6.356 4.182 4.238 6.275 10.868 6.275 19.887z"/><path d="m492.57 103.795c-11.846 0-17.767 4.131-17.767 12.388 0 3.806 1.357 6.495 4.075 8.068 2.715 1.578 8.909 3.207 18.582 4.891 9.67 1.686 16.516 4.05 20.538 7.09 4.019 3.044 6.031 8.749 6.031 17.115 0 8.369-2.69 14.507-8.069 18.419s-13.231 5.868-23.553 5.868c-6.739 0-29.224-2.494-29.224-2.494l.652-10.595c12.924 1.247 22.268 2.168 28.572 2.168 6.301 0 11.109-1.004 14.425-3.015 3.314-2.01 4.972-5.379 4.972-10.106s-1.414-7.931-4.238-9.617c-2.827-1.683-9.021-3.286-18.582-4.808-9.564-1.521-16.356-3.75-20.375-6.684-4.021-2.934-6.031-8.366-6.031-16.3 0-7.931 2.796-13.799 8.394-17.603 5.596-3.803 12.577-5.705 20.946-5.705 6.627 0 29.627 1.685 29.627 1.685v10.659c-12.099-.552-22.022-1.424-28.975-1.424"/><path d="m582.99 105.099h-25.917v38.957c0 9.348.678 15.486 2.038 18.419 1.357 2.935 4.589 4.401 9.698 4.401l14.507-.978.815 10.106c-7.281 1.195-12.823 1.793-16.626 1.793-8.476 0-14.344-2.062-17.604-6.194-3.26-4.128-4.89-12.006-4.89-23.635v-42.869h-11.573v-10.595h11.573v-24.939h12.062v24.939h25.917z"/><path d="m599.985 177.005h12.226v-82.501h-12.226zm0-92.913h12.226v-14.181h-12.226z"/><path d="m665.163 92.875c3.586 0 9.671.652 18.256 1.956l3.912.489-.489 9.942c-8.695-.977-15.106-1.467-19.234-1.467-9.238 0-15.513 2.201-18.827 6.602-3.316 4.401-4.971 12.551-4.971 24.45s1.549 20.187 4.645 24.858c3.097 4.672 9.536 7.008 19.316 7.008l19.234-1.466.489 10.105c-10.106 1.521-17.66 2.282-22.657 2.282-12.714 0-21.491-3.259-26.325-9.78-4.836-6.52-7.253-17.522-7.253-33.007s2.608-26.35 7.824-32.6c5.216-6.247 13.908-9.372 26.08-9.372"/></g></g></svg>