<svg height="218" viewBox="0 0 219 218" width="219" xmlns="http://www.w3.org/2000/svg"><g fill="none" fill-rule="evenodd" transform="translate(.148 .803)"><path d="m83.861 92.035 51.765 23.599 52.229-45.762c.756-3.775 1.125-7.539 1.125-11.478 0-32.198-26.19-58.394-58.389-58.394-19.262 0-37.228 9.484-48.148 25.387l-8.687 45.071z" fill="#f8cd25"/><path d="m30.278 146.852c-.756 3.775-1.143 7.691-1.143 11.653 0 32.281 26.266 58.547 58.553 58.547 19.42 0 37.474-9.572 48.377-25.639l8.622-44.918-11.506-21.988-51.971-23.687z" fill="#2fb2a3"/><path d="m29.95 57.269 35.475 8.376 7.773-40.334c-4.847-3.705-10.832-5.733-16.987-5.733-15.417 0-27.955 12.544-27.955 27.96 0 3.406.569 6.671 1.694 9.731" fill="#de4a8b"/><path d="m26.87 65.718c-15.85 5.252-26.87 20.446-26.87 37.157 0 16.273 10.065 30.804 25.171 36.554l49.772-44.989-9.139-19.525z" fill="#2c9ecc"/><path d="m145.165 191.412c4.865 3.74 10.82 5.78 16.899 5.78 15.416 0 27.955-12.539 27.955-27.955 0-3.4-.569-6.665-1.694-9.725l-35.446-8.294z" fill="#8ac140"/><path d="m152.377 141.926 39.022 9.127c15.856-5.24 26.876-20.44 26.876-37.157 0-16.243-10.088-30.757-25.223-36.49l-51.039 44.714z" fill="#1a6f90"/></g></svg>