<?xml version="1.0" encoding="UTF-8"?>
<svg width="70px" height="70px" viewBox="0 0 70 70" version="1.1" xmlns="http://www.w3.org/2000/svg" xmlns:xlink="http://www.w3.org/1999/xlink">
    <!-- Generator: Sketch 64 (93537) - https://sketch.com -->
    <title>enrichment-plain</title>
    <desc>Created with Sketch.</desc>
    <defs>
        <linearGradient x1="0%" y1="0%" x2="98.3055321%" y2="98.3055321%" id="linearGradient-1">
            <stop stop-color="#98D5FD" offset="0%"></stop>
            <stop stop-color="#4EDC9F" offset="100%"></stop>
        </linearGradient>
    </defs>
    <g id="Page-1" stroke="none" stroke-width="1" fill="none" fill-rule="evenodd">
        <g id="Products----White---Blue-Title" transform="translate(-92.000000, -327.000000)">
            <g id="enrichment-plain" transform="translate(92.000000, 327.000000)">
                <path d="M25.638852,0 L44.361148,0 C53.2763354,0 56.5091978,0.928256111 59.768457,2.67132704 C63.0277163,4.41439796 65.585602,6.97228371 67.328673,10.231543 C69.0717439,13.4908022 70,16.7236646 70,25.638852 L70,44.361148 C70,53.2763354 69.0717439,56.5091978 67.328673,59.768457 C65.585602,63.0277163 63.0277163,65.585602 59.768457,67.328673 C56.5091978,69.0717439 53.2763354,70 44.361148,70 L25.638852,70 C16.7236646,70 13.4908022,69.0717439 10.231543,67.328673 C6.97228371,65.585602 4.41439796,63.0277163 2.67132704,59.768457 C0.928256111,56.5091978 0,53.2763354 0,44.361148 L0,25.638852 C0,16.7236646 0.928256111,13.4908022 2.67132704,10.231543 C4.41439796,6.97228371 6.97228371,4.41439796 10.231543,2.67132704 C13.4908022,0.928256111 16.7236646,0 25.638852,0 Z" id="Rectangle" fill="url(#linearGradient-1)"></path>
                <path d="M57,44.5 C57.8284271,44.5 58.5,45.1715729 58.5,46 L58.5,50.590287 C58.5,52.8487756 58.2822288,53.9764872 57.654888,55.1495125 C57.0793206,56.2257301 56.2257301,57.0793206 55.1495125,57.654888 C53.9764872,58.2822288 52.8487756,58.5 50.590287,58.5 L46,58.5 C45.1715729,58.5 44.5,57.8284271 44.5,57 C44.5,56.1715729 45.1715729,55.5 46,55.5 L50.590287,55.5 C52.3958815,55.5 53.0557205,55.3725792 53.734716,55.0094484 C54.2881281,54.7134804 54.7134804,54.2881281 55.0094484,53.734716 C55.3725792,53.0557205 55.5,52.3958815 55.5,50.590287 L55.5,46 C55.5,45.1715729 56.1715729,44.5 57,44.5 Z M13,44.5 C13.8284271,44.5 14.5,45.1715729 14.5,46 L14.5,50.590287 C14.5,52.3958815 14.6274208,53.0557205 14.9905516,53.734716 C15.2865196,54.2881281 15.7118719,54.7134804 16.265284,55.0094484 C16.9442795,55.3725792 17.6041185,55.5 19.409713,55.5 L24,55.5 C24.8284271,55.5 25.5,56.1715729 25.5,57 C25.5,57.8284271 24.8284271,58.5 24,58.5 L19.409713,58.5 C17.1512244,58.5 16.0235128,58.2822288 14.8504875,57.654888 C13.7742699,57.0793206 12.9206794,56.2257301 12.345112,55.1495125 C11.7177712,53.9764872 11.5,52.8487756 11.5,50.590287 L11.5,46 C11.5,45.1715729 12.1715729,44.5 13,44.5 Z M50.2180574,43 C50.6638168,43 50.8254599,43.0464128 50.9884229,43.1335664 C51.1513858,43.2207199 51.2792801,43.3486142 51.3664336,43.5115771 C51.4535872,43.6745401 51.5,43.8361832 51.5,44.2819426 L51.5,49.4361148 C51.5,50.3276335 51.4071744,50.6509198 51.2328673,50.9768457 C51.0585602,51.3027716 50.8027716,51.5585602 50.4768457,51.7328673 C50.1509198,51.9071744 49.8276335,52 48.9361148,52 L21.0638852,52 C20.1723665,52 19.8490802,51.9071744 19.5231543,51.7328673 C19.1972284,51.5585602 18.9414398,51.3027716 18.7671327,50.9768457 C18.5928256,50.6509198 18.5,50.3276335 18.5,49.4361148 L18.5,44.2819426 C18.5,43.8361832 18.5464128,43.6745401 18.6335664,43.5115771 C18.7207199,43.3486142 18.8486142,43.2207199 19.0115771,43.1335664 C19.1745401,43.0464128 19.3361832,43 19.7819426,43 L50.2180574,43 Z M51.2180574,30 C51.6638168,30 51.8254599,30.0464128 51.9884229,30.1335664 C52.1513858,30.2207199 52.2792801,30.3486142 52.3664336,30.5115771 C52.4535872,30.6745401 52.5,30.8361832 52.5,31.2819426 L52.5,38.7180574 C52.5,39.1638168 52.4535872,39.3254599 52.3664336,39.4884229 C52.2792801,39.6513858 52.1513858,39.7792801 51.9884229,39.8664336 C51.8254599,39.9535872 51.6638168,40 51.2180574,40 L18.7819426,40 C18.3361832,40 18.1745401,39.9535872 18.0115771,39.8664336 C17.8486142,39.7792801 17.7207199,39.6513858 17.6335664,39.4884229 C17.5464128,39.3254599 17.5,39.1638168 17.5,38.7180574 L17.5,31.2819426 C17.5,30.8361832 17.5464128,30.6745401 17.6335664,30.5115771 C17.7207199,30.3486142 17.8486142,30.2207199 18.0115771,30.1335664 C18.1745401,30.0464128 18.3361832,30 18.7819426,30 L51.2180574,30 Z M48.9361148,18 C49.8276335,18 50.1509198,18.0928256 50.4768457,18.2671327 C50.8027716,18.4414398 51.0585602,18.6972284 51.2328673,19.0231543 C51.4071744,19.3490802 51.5,19.6723665 51.5,20.5638852 L51.5,25.7180574 L51.3664336,26.4884229 L50.9884229,26.8664336 L50.2180574,27 L19.7819426,27 L19.0115771,26.8664336 L18.6335664,26.4884229 L18.5,25.7180574 L18.5,20.5638852 C18.5,19.6723665 18.5928256,19.3490802 18.7671327,19.0231543 C18.9414398,18.6972284 19.1972284,18.4414398 19.5231543,18.2671327 C19.8490802,18.0928256 20.1723665,18 21.0638852,18 L48.9361148,18 Z M50.590287,11.5 C52.8487756,11.5 53.9764872,11.7177712 55.1495125,12.345112 C56.2257301,12.9206794 57.0793206,13.7742699 57.654888,14.8504875 C58.2822288,16.0235128 58.5,17.1512244 58.5,19.409713 L58.5,24 C58.5,24.8284271 57.8284271,25.5 57,25.5 C56.1715729,25.5 55.5,24.8284271 55.5,24 L55.5,19.409713 C55.5,17.6041185 55.3725792,16.9442795 55.0094484,16.265284 C54.7134804,15.7118719 54.2881281,15.2865196 53.734716,14.9905516 C53.0557205,14.6274208 52.3958815,14.5 50.590287,14.5 L46,14.5 C45.1715729,14.5 44.5,13.8284271 44.5,13 C44.5,12.1715729 45.1715729,11.5 46,11.5 L50.590287,11.5 Z M24,11.5 C24.8284271,11.5 25.5,12.1715729 25.5,13 C25.5,13.8284271 24.8284271,14.5 24,14.5 L19.409713,14.5 C17.6041185,14.5 16.9442795,14.6274208 16.265284,14.9905516 C15.7118719,15.2865196 15.2865196,15.7118719 14.9905516,16.265284 C14.6274208,16.9442795 14.5,17.6041185 14.5,19.409713 L14.5,24 C14.5,24.8284271 13.8284271,25.5 13,25.5 C12.1715729,25.5 11.5,24.8284271 11.5,24 L11.5,19.409713 C11.5,17.1512244 11.7177712,16.0235128 12.345112,14.8504875 C12.9206794,13.7742699 13.7742699,12.9206794 14.8504875,12.345112 C16.0235128,11.7177712 17.1512244,11.5 19.409713,11.5 L24,11.5 Z" id="Combined-Shape" fill="#FFFFFF" fill-rule="nonzero"></path>
            </g>
        </g>
    </g>
</svg>