<svg height="48" viewBox="0 0 175 48" width="175" xmlns="http://www.w3.org/2000/svg"><g fill="#788ca1" transform="translate(11 7)"><path d="m17.6517487 21.2495339v-21.12285971h6.8919638v20.25775961c0 1.4274151.3172034 1.7734552 1.7734551 1.7734552h.5911517l.8074268 5.5943137c-.5190601.0720916-2.6529736.216275-3.9362053.216275-3.7920219 0-6.1277921-1.3264868-6.1277921-6.7189438z"/><path d="m70.4084338 8.35954306 5.3636204-.41813169.51906 1.6004351c1.0813751-1.0092834 2.9557586-2.0185668 6.9928922-2.0185668 6.9640554 0 8.5500722 4.90223363 8.5500722 10.36678233 0 5.4933854-1.7734551 10.3379457-8.9682039 10.3379457-3.2008702 0-4.700377-.7353351-5.5654771-1.5283434v6.9640554h-6.8919638zm14.4327527 9.80446734c0-2.3357702-.4181317-4.3831737-3.4027269-4.3831737-3.2008702 0-4.138062 1.6292718-4.138062 4.3831737 0 2.7539018.6920801 4.2389902 4.138062 4.2389902 2.9125035 0 3.4027269-1.9176384 3.4027269-4.2389902z"/><path d="m116.40292 8.35954306 5.363621-.41813169.69208 2.09065843c.8651-1.18230337 3.272961-2.19158677 6.127792-2.29251511v6.63243381c-4.585031.0288366-5.291529 1.3985784-5.291529 4.1236436v9.4295906h-6.891964z"/><path d="m130.504051 7.73955469h3.54691l1.110212-4.05155193 5.320365-1.15346675v5.19060034h4.354337v6.63243375h-4.354337v5.7529154c0 1.3553234.216275 2.0474035 2.364607 2.0474035h1.98973v5.738497c-1.03812.0720917-2.191586.1009283-3.474818.1009283-5.810589 0-7.728227-1.8455467-7.728227-6.8487087v-6.7910355h-3.128779z"/><path d="m146.739096 22.157889h5.738497v5.738497h-5.738497z"/><path d="m.63811428 7.97024804h3.76318525v-.38929503c0-5.00316199 1.87438345-7.51195216 8.34821557-7.51195216 1.7013634 0 2.0185668.02883667 2.8548302.10092834v5.5943137h-1.9176385c-1.9753118 0-2.3934435.49022337-2.3934435 1.77345512v.41813169h4.311082v5.8394254h-4.311082v14.0867126h-6.89196377v-14.0867126h-3.76318525z"/><path d="m42.7108137 21.9560323c-1.1390484.6632434-1.7302001.821845-3.9938786.821845-2.6962285 0-3.7343486-.95161-4.0803886-2.5808818h13.2360309c.2451117-7.0217288-.34604-12.68813416-9.1556423-12.68813416-8.8528572 0-10.7128224 4.87339696-10.7128224 10.30910896 0 5.5654771 1.8599652 10.4677107 10.7128224 10.4677107 3.4892369 0 5.695242-.648825 8.0310122-2.1627501zm-4.2101536-8.7951839c2.8404118 0 3.0422685 1.3553234 3.1431969 2.9701768h-7.0938205c.2883667-1.9032201 1.1823034-2.9701768 3.9506236-2.9701768z"/><path d="m61.5267399 27.9108043-3.3738902-4.8301419-3.3738902 4.8301419h-7.6993905l7.2091671-10.2802723-6.5459237-9.27098894h7.7714821l2.6673919 3.77760354 2.6673918-3.77760354h7.8724105l-6.6756887 9.22773394 7.2380038 10.3235273z"/><path d="m93.2614937 17.8756437c0-6.6035971 3.0278502-10.36678236 10.8137503-10.36678236 7.785901 0 10.784914 3.76318526 10.784914 10.36678236s-2.984595 10.39566-10.784914 10.39566c-7.7859001.0143773-10.8137503-3.7776446-10.8137503-10.39566zm14.6778643.216275c0-2.5087902-.619988-4.311082-3.864114-4.311082-3.229706 0-3.864113 1.8022918-3.864113 4.311082 0 2.4655352.619988 4.3110819 3.864113 4.3110819 3.244126 0 3.864114-1.8455467 3.864114-4.3110819z"/></g></svg>