<svg height="48" viewBox="0 0 48 48" width="48" xmlns="http://www.w3.org/2000/svg" xmlns:xlink="http://www.w3.org/1999/xlink"><linearGradient id="a" x1="50%" x2="74.775467%" y1="0%" y2="98.333634%"><stop offset="0" stop-color="#d4ebff"/><stop offset="1" stop-color="#9cbbf0"/></linearGradient><linearGradient id="b" x1="50.331667%" x2="75.195313%" y1="1.316384%" y2="100%"><stop offset="0" stop-color="#e0ecf8"/><stop offset="1" stop-color="#c2d3f2"/></linearGradient><g fill="none" fill-rule="evenodd"><path d="m16.4954389 47.9867312h-8.65463856c-4.33035445 0-7.84080034-3.5104459-7.84080034-7.8408003v-32.30513056c0-4.33035445 3.51044589-7.84080034 7.84080034-7.84080034h8.65463856 4.1238597 19.5266323c4.3303544 0 7.8408003 3.51044589 7.8408003 7.84080034v16.15256526 16.1525653c0 4.3303544-3.5104459 7.8408003-7.8408003 7.8408003z" fill="url(#a)" fill-opacity=".8" opacity=".9"/><path d="m23.9474936 23.9933656h24.0392376v16.1525653c0 4.3303544-3.5104459 7.8408003-7.8408003 7.8408003h-16.1984373z" fill="#000" fill-opacity=".32"/><path d="m7.84080034 0h16.15256526v47.9867312h-16.15256526c-4.33035445 0-7.84080034-3.5104459-7.84080034-7.8408003v-32.30513056c0-4.33035445 3.51044589-7.84080034 7.84080034-7.84080034z" fill="url(#b)"/></g></svg>