<?xml version="1.0" encoding="UTF-8"?>
<svg width="25px" height="26px" viewBox="0 0 25 26" version="1.1" xmlns="http://www.w3.org/2000/svg" xmlns:xlink="http://www.w3.org/1999/xlink">
    <!-- Generator: Sketch 64 (93537) - https://sketch.com -->
    <title>hubspot</title>
    <desc>Created with Sketch.</desc>
    <g id="Page-1" stroke="none" stroke-width="1" fill="none" fill-rule="evenodd">
        <path d="M19.068488,8.56075522 L19.068488,5.46454215 C19.9036922,5.07428947 20.4390637,4.23750068 20.4433465,3.31563041 L20.4433465,3.24410598 C20.4433465,1.92737759 19.3759272,0.859958336 18.0591988,0.859958336 L17.9876744,0.859958336 C16.670946,0.859958336 15.6035268,1.92737759 15.6035268,3.24410598 L15.6035268,3.31563041 C15.6078096,4.23750068 16.1431811,5.07428947 16.9783852,5.46454215 L16.9783852,8.56075522 C15.8023712,8.74067023 14.6947734,9.22812294 13.7677331,9.97376006 L5.27698861,3.3601345 C5.33707747,3.14204181 5.36912431,2.91717979 5.37235452,2.69098373 C5.37428261,1.60439927 4.72139357,0.623675046 3.71819675,0.206223681 C2.71499993,-0.211227684 1.55911267,0.0168265554 0.789644141,0.784021242 C0.0201756121,1.55121593 -0.211298418,2.70642321 0.203182209,3.71085106 C0.617662836,4.71527892 1.59645057,5.3710675 2.68303598,5.37235511 C3.14766057,5.37027822 3.60362137,5.24642348 4.0054432,5.01314353 L12.3674437,11.5186877 C10.8297944,13.8410764 10.8707848,16.8680601 12.4707568,19.1479602 L9.92766595,21.691051 C9.72201304,21.6253784 9.50775901,21.5905621 9.29189324,21.5877379 C8.07389483,21.5886158 7.08705941,22.5764 7.08735202,23.7943987 C7.08764464,25.0123973 8.07495455,25.9997073 9.29295324,26 C10.5109519,26.0002925 11.4987361,25.0134571 11.499614,23.7954587 C11.4968837,23.5795847 11.4620651,23.3653169 11.3963009,23.1596859 L13.9123714,20.6436155 C16.1603476,22.3735046 19.2472926,22.5221096 21.6510418,21.0161535 C24.054791,19.5101975 25.2677823,16.6676696 24.691893,13.890213 C24.1160037,11.1127564 21.8728351,8.98684302 19.068488,8.56075522 M18.0258208,18.7426551 C16.104019,18.7408998 14.5472674,17.1820141 14.5481444,15.2602118 C14.5490222,13.3384095 16.1071966,11.7809454 18.0289992,11.7809454 C19.9508017,11.7809454 21.5089769,13.3384078 21.5098552,15.2602101 C21.5098552,17.1826335 19.9514231,18.7410657 18.0289996,18.7410657" id="hubspot" fill="#FFFFFF" fill-rule="nonzero"></path>
    </g>
</svg>