<svg height="43" viewBox="0 0 147 43" width="147" xmlns="http://www.w3.org/2000/svg"><g fill="none" transform="translate(0 -1)"><path d="m15.9203774 8.28469811v11.75306609h-10.79756608v-11.75306609h-5.12281132v28.05619809h5.12419811v-11.3716981h10.79479249v11.3716981h5.1255849v-28.05619809zm21.5257924 18.98796229c0 2.3417524-1.8983654 4.2401179-4.2401179 4.2401179s-4.2401179-1.8983655-4.2401179-4.2401179v-12.0179434h-4.8607076v12.0179434c.0000001 5.0212686 4.0705427 9.0918111 9.0918113 9.0918111 5.0212687 0 9.0918113-4.0705425 9.0918114-9.0918111v-12.0179434h-4.8426793zm36.0163868-10.7795378c0-2.4643301 1.6294811-3.2450943 3.414283-3.2450943 1.4394906 0 3.3393962 1.095566 4.5833491 2.4241132l3.1826887-3.7526604c-1.5892642-2.14952827-4.8121699-3.63478299-7.4512359-3.63478299-5.2739717 0-9.0876509 3.08838679-9.0876509 8.20842449 0 9.4995283 11.6102264 6.4846416 11.6102264 11.8016038 0 1.6391887-1.5920378 3.087-3.414283 3.087-2.8748208 0-3.8067453-1.4048207-5.1269717-2.8914622l-3.5335472 3.6736132c2.2604717 2.7735849 5.0479245 4.182566 8.385934 4.182566 5.0104811 0 9.0405-3.1258302 9.0405-8.0128868 0-10.5451698-11.6116133-7.2681792-11.6116133-11.840434zm71.8275284 15.3656604c-2.872047 0-3.688868-1.242566-3.688868-3.1452453v-8.4247641h4.465472v-4.2685472h-4.465472v-5.6317641l-4.92866 2.2119339v17.1601698c0 4.3891982 3.028754 6.6011321 7.180811 6.6011321.651792.0110944 1.303585-.0416038 1.944283-.1553207l1.202349-4.4266416c-.542236.0374434-1.164906.0748868-1.709915.0748868zm-89.3413303-16.464c-2.4074717 0-4.0882641.6989434-5.7135849 2.2923679v-9.2346509h-4.8676415v17.1171792c0 6.4069812 4.6318868 10.7975661 9.8379057 10.7975661 5.7746037 0 10.8544245-4.4682453 10.8544245-10.484151 0-5.9410188-4.6748774-10.4841509-10.1111038-10.4841509zm-.0305094 16.0729245c-1.973638.0000001-3.7973546-1.0529232-4.7841736-2.7621438s-.986819-3.8150672 0-5.5242878 2.8105356-2.7621439 4.7841736-2.7621438c3.0509798 0 5.5242876 2.4733079 5.5242876 5.5242877s-2.4733078 5.5242877-5.5242876 5.5242877zm52.8950377-5.839783c0-6.027-5.068726-10.4841509-10.8544245-10.4841509-5.2046321 0-9.8379057 4.3891981-9.8379057 10.797566v17.1268868h4.8676415v-9.2471321c1.6225472 1.590651 3.3061132 2.292368 5.7108114 2.292368 5.4362263 0 10.1124903-4.5431321 10.1124903-10.4855378zm-4.609698-.0610188c0 3.0509798-2.473308 5.5242877-5.5242878 5.5242877-3.0509799 0-5.5242878-2.4733079-5.5242878-5.5242877 0-3.0509799 2.4733079-5.5242878 5.5242878-5.5242878 3.0509798 0 5.5242878 2.4733079 5.5242878 5.5242878z" fill="#33475b"/><path d="m124.542283 14.9080189v-4.891217c1.319342-.61661625 2.164997-1.93856014 2.171717-3.39486794v-.11233019c0-2.08018868-1.68634-3.7665283-3.766528-3.7665283h-.11233c-2.080197 0-3.766529 1.68633216-3.766529 3.7665283v.11233019c.00672 1.4563078.852376 2.77825169 2.171717 3.39486794v4.891217c-1.857683.2844449-3.607228 1.054685-5.0715 2.2327358l-13.414443-10.44809432c.095688-.34531132.145613-.70033019.15116-1.05673585.003365-1.71661791-1.027815-3.26618168-2.612583-3.92595343-1.5847684-.65977174-3.4109357-.29978083-4.6267526.91206801s-1.5817757 3.03682949-.9271881 4.62374584c.6545875 1.58691635 2.2007721 2.62315648 3.9173918 2.62540373.7343744-.00345833 1.4549919-.19951228 2.0898959-.56858491l13.209198 10.27890563c-2.428424 3.6686387-2.363501 8.4498786.163642 12.0512264l-4.017538 4.0189246c-.324755-.1038564-.663111-.1590028-1.004038-.1636415-1.923994.0015318-3.482745 1.561938-3.482234 3.4859332.00051 1.9239951 1.560089 3.4835738 3.484084 3.4840844s3.484402-1.55824 3.485933-3.4822346c-.004474-.3409407-.059625-.6793207-.163641-1.0040377l3.974547-3.975934c3.551234 2.7339825 8.428662 2.9695189 12.22681.5904462 3.798149-2.3790727 5.714847-6.8702917 4.804807-11.258657-.910041-4.3883652-4.454616-7.7470491-8.885598-8.4196005m-1.647509 16.0867924c-1.999785.0550232-3.871667-.980413-4.887782-2.7036887-1.016114-1.7232757-1.016114-3.8624506 0-5.5857263 1.016115-1.7232757 2.887997-2.7587119 4.887782-2.7036888 2.959023.1036218 5.304698 2.5316516 5.306193 5.4924883.001494 2.9608367-2.341729 5.3912332-5.300646 5.4978419" fill="#ff7a59"/></g></svg>