<?xml version="1.0" encoding="UTF-8"?>
<svg width="72px" height="72px" viewBox="0 0 72 72" version="1.1" xmlns="http://www.w3.org/2000/svg" xmlns:xlink="http://www.w3.org/1999/xlink">
    <!-- Generator: Sketch 64 (93537) - https://sketch.com -->
    <title>Identity/Clearbit/Icon/On white/Flat</title>
    <desc>Created with Sketch.</desc>
    <defs>
        <path d="M13.6963789,0.774253767 C14.4771913,-0.00703091285 15.7435213,-0.00716712079 16.5246539,0.77410166 L16.5246539,0.77410166 L28.0196153,12.2684354 C29.6617,9.78895985 32.4764378,8.15384615 35.6730769,8.15384615 C40.7392274,8.15384615 44.8461538,12.2607726 44.8461538,17.3269231 C44.8461538,20.5235622 43.2110401,23.3383 40.7315646,24.9803847 L52.2231498,36.4725976 C53.0039869,37.2537389 53.004055,38.5199516 52.2233019,39.3011768 L52.2233019,39.3011768 L40.8621528,50.6647702 C37.9963053,53.5306177 33.3498485,53.5306177 30.484001,50.6647702 L30.484001,50.6647702 L2.33522976,22.515999 C-0.530617731,19.6501515 -0.530617731,15.0036947 2.33522976,12.1378472 L2.33522976,12.1378472 Z" id="path-1"></path>
        <path d="M12.1378472,2.33522976 C15.0036947,-0.530617731 19.6501515,-0.530617731 22.515999,2.33522976 L22.515999,2.33522976 L50.6647702,30.484001 C53.5306177,33.3498485 53.5306177,37.9963053 50.6647702,40.8621528 L50.6647702,40.8621528 L39.3014175,52.2232878 C38.5202085,53.0040683 37.253985,53.0040065 36.4728523,52.2231498 L36.4728523,52.2231498 L27.6127457,43.3637472 C29.2182635,41.2199119 30.1692308,38.5575495 30.1692308,35.6730769 C30.1692308,28.5804662 24.4195338,22.8307692 17.3269231,22.8307692 C14.4424227,22.8307692 11.7800368,23.7817548 9.63619078,25.3873007 L0.774356373,16.5246539 C-0.00683022287,15.7437433 -0.00683022287,14.4774133 0.774494385,13.6963648 L0.774494385,13.6963648 Z" id="path-3"></path>
    </defs>
    <g id="Identities" stroke="none" stroke-width="1" fill="none" fill-rule="evenodd">
        <g id="Clearbit-Integrations/Icon-on-color" transform="translate(-80.000000, -165.000000)">
            <g id="Identity/Integrations/Icon/On-color/Flat" transform="translate(80.000000, 165.000000)">
                <g id="SW" transform="translate(0.000000, 19.000000)">
                    <mask id="mask-2" fill="white">
                        <use xlink:href="#path-1"></use>
                    </mask>
                    <use fill-opacity="0.9" fill="#FFFFFF" xlink:href="#path-1"></use>
                    <polygon id="Gloss" fill="#FFFFFF" mask="url(#mask-2)" points="72 -19.5 72 53 1.42108547e-14 53"></polygon>
                </g>
                <g id="NE" transform="translate(19.000000, 0.000000)">
                    <mask id="mask-4" fill="white">
                        <use xlink:href="#path-3"></use>
                    </mask>
                    <use fill-opacity="0.4" fill="#FFFFFF" xlink:href="#path-3"></use>
                    <polygon id="Gloss" fill-opacity="0.3" fill="#FFFFFF" mask="url(#mask-4)" points="-19 3.11431069e-14 53 6.45978997e-14 -19 72"></polygon>
                </g>
            </g>
        </g>
    </g>
</svg>