<svg height="26" width="26" xmlns="http://www.w3.org/2000/svg"><path d="m22.75 0h-19.5a3.25 3.25 0 0 0 -3.25 3.25v19.5a3.25 3.25 0 0 0 3.25 3.25h19.5a3.25 3.25 0 0 0 3.25-3.25v-19.5a3.25 3.25 0 0 0 -3.25-3.25zm-6.283 4.767a.867.867 0 0 1 1.733 0v11.578a.867.867 0 0 1 -1.733 0zm-4.334-.438a.867.867 0 0 1 1.734 0v12.567a.867.867 0 0 1 -1.734 0zm-4.333.438a.866.866 0 1 1 1.732 0v11.578a.866.866 0 1 1 -1.732 0zm-4.333 1.733a.866.866 0 1 1 1.732 0v7.795a.867.867 0 0 1 -1.732 0zm18.763 13.22c-.133.115-3.344 2.809-9.231 2.809s-9.097-2.693-9.231-2.81a.867.867 0 0 1 1.125-1.316c.051.042 2.918 2.393 8.105 2.393 5.252 0 8.074-2.369 8.102-2.391a.865.865 0 0 1 1.221.093.862.862 0 0 1 -.091 1.222zm.303-5.424a.867.867 0 0 1 -1.732 0v-7.796a.866.866 0 1 1 1.732 0z" fill="#286efa" fill-rule="evenodd"/></svg>