<svg height="36" viewBox="0 0 168 36" width="168" xmlns="http://www.w3.org/2000/svg"><g fill="none" fill-rule="evenodd"><path d="m32.5755 0h-27c-2.485125 0-4.5 2.014875-4.5 4.5v27c0 2.485125 2.014875 4.5 4.5 4.5h27c2.485125 0 4.5-2.014875 4.5-4.5v-27c0-2.485125-2.014875-4.5-4.5-4.5zm-8.70075 6.600375c0-.662625.53775-1.200375 1.200375-1.200375s1.200375.53775 1.200375 1.200375v16.032375c0 .662625-.53775 1.200375-1.200375 1.200375s-1.200375-.53775-1.200375-1.200375zm-5.999625-.6075c0-.662625.53775-1.200375 1.200375-1.200375s1.200375.53775 1.200375 1.200375v17.400375c0 .662625-.53775 1.200375-1.200375 1.200375s-1.200375-.53775-1.200375-1.200375zm-5.999625.6075c0-.662625.53775-1.200375 1.200375-1.200375s1.19925.53775 1.19925 1.200375v16.032375c0 .662625-.536625 1.200375-1.19925 1.200375s-1.200375-.53775-1.200375-1.200375zm-5.999625 2.399625c0-.662625.536625-1.200375 1.19925-1.200375s1.200375.53775 1.200375 1.200375v10.79325c0 .662625-.53775 1.200375-1.200375 1.200375s-1.19925-.53775-1.19925-1.200375zm25.98075 18.30375c-.1845.15975-4.6305 3.889125-12.781125 3.889125s-12.594375-3.729375-12.781125-3.889125c-.502875-.430875-.5625-1.188-.1305-1.692.42975-.50175 1.18575-.561375 1.688625-.131625.06975.0585 4.039875 3.313125 11.221875 3.313125 7.272 0 11.18025-3.27825 11.2185-3.310875.50175-.432 1.261125-.3735 1.690875.129375.43425.504.37575 1.261125-.127125 1.692zm.4185-7.5105c0 .662625-.53775 1.200375-1.200375 1.200375s-1.19925-.53775-1.19925-1.200375v-10.79325c0-.662625.536625-1.200375 1.19925-1.200375s1.200375.53775 1.200375 1.200375z" fill="#286efa"/><g fill="#000" fill-rule="nonzero" transform="translate(48.375 11.25)"><path d="m2.98125 11.95425c0 .60075-.459 1.094625-1.112625 1.094625-.635625 0-1.094625-.495-1.094625-1.094625v-10.436625c0-.60075.459-1.094625 1.112625-1.094625.635625 0 1.094625.495 1.094625 1.094625z"/><path d="m17.249625 1.517625v9.536625c0 1.28925-.6885 2.01375-1.783125 2.01375h-.08775c-1.04175 0-1.53675-.60075-1.97775-1.483875l-2.22525-4.32675-1.97775-4.467375.052875 4.32675.018 4.820625c0 .60075-.459 1.094625-1.112625 1.094625-.635625 0-1.094625-.495-1.094625-1.094625v-9.536625c0-1.1835.6885-2.01375 1.89-2.01375h.08775c1.112625 0 1.571625.60075 2.01375 1.483875l2.18925 4.291875 1.872 4.168125-.052875-3.9915-.018-4.820625c0-.60075.459-1.094625 1.112625-1.094625.6345-.001125 1.0935.49275 1.0935 1.0935z"/><path d="m26.09775 11.937375c0 .60075-.459 1.094625-1.112625 1.094625-.635625 0-1.094625-.495-1.094625-1.094625v-9.44775h-2.737125c-.56475 0-1.02375-.424125-1.02375-1.04175 0-.60075.459-1.02375 1.02375-1.02375h7.6815c.56475 0 1.02375.424125 1.02375 1.04175 0 .60075-.459 1.02375-1.02375 1.02375h-2.737125z"/><path d="m32.7375 11.584125v-9.801c0-.918.511875-1.429875 1.447875-1.395h6.357375c.56475 0 1.02375.441 1.02375 1.04175s-.459 1.02375-1.02375 1.02375h-5.616v3.0375h4.962375c.547875 0 .988875.406125.988875.988875s-.441.988875-.988875.988875h-4.962375v3.4965h5.616c.56475 0 1.02375.441 1.02375 1.04175s-.459 1.0237519-1.02375 1.0237519h-6.41025c-.918.0011231-1.429875-.5107519-1.395-1.4467519z"/><path d="m54.10575 11.601c.300375.511875.10575 1.1655-.511875 1.483875-.60075.300375-1.254375.070875-1.553625-.441l-2.45475-4.53825h-2.331l.018 3.84975c0 .60075-.459 1.094625-1.112625 1.094625-.635625 0-1.094625-.495-1.094625-1.094625v-10.17225c0-.918.511875-1.429875 1.447875-1.395h4.185c2.878875 0 4.07925 1.872 4.07925 3.778875 0 1.819125-1.05975 3.16125-2.878875 3.5145zm-6.852375-5.49225h3.4965c1.1835 0 1.801125-.759375 1.801125-1.837125s-.653625-1.819125-1.819125-1.819125h-3.4785z"/><path d="m59.3325 12.096c-1.324125-1.1835-1.924875-3.0375-1.924875-5.3685 0-2.349.58275-4.185 1.89-5.3505.81225-.7065 1.906875-1.1835 3.4965-1.1835 1.395 0 2.47275.318375 3.285 1.006875.7065.56475 1.218375 1.360125 1.51875 2.47275.158625.58275-.2475 1.1655-.918 1.28925-.635625.10575-1.1475-.300375-1.342125-.883125-.2115-.56475-.495-.970875-.83025-1.254375-.459-.406125-1.02375-.58275-1.76625-.58275-.79425 0-1.483875.2295-1.99575.741375-.741375.741375-1.05975 2.066625-1.05975 3.744 0 1.6605.300375 2.984625 1.07775 3.726.511875.511875 1.1835.741375 1.95975.741375.81225 0 1.429875-.2115 1.942875-.6885.264375-.2475.495-.56475.653625-.936.2295-.547875.7065-.954 1.324125-.81225s1.006875.741375.81225 1.324125c-.318375.970875-.865125 1.74825-1.6065 2.278125-.81225.58275-1.819125.883125-3.090375.883125-1.6245 0-2.649375-.477-3.42675-1.1475z"/><path d="m70.0875 6.7275c0-3.9555 1.6245-6.534 5.457375-6.534 3.796875 0 5.439375 2.507625 5.439375 6.534 0 4.07925-1.6605 6.534-5.439375 6.534-3.84975 0-5.457375-2.45475-5.457375-6.534zm8.6355 0c0-3.002625-1.094625-4.467375-3.196125-4.467375-2.066625 0-3.16125 1.465875-3.16125 4.467375 0 3.002625 1.05975 4.467375 3.16125 4.467375 2.0835 0 3.196125-1.465875 3.196125-4.467375z"/><path d="m98.1135 11.937375c0 .60075-.459 1.094625-1.112625 1.094625-.635625 0-1.094625-.495-1.094625-1.094625v-4.732875l.052875-4.609125-1.53675 4.68-1.553625 4.609125c-.264375.81225-.81225 1.130625-1.50075 1.130625-.7245 0-1.254375-.33525-1.53675-1.1475l-1.589625-4.591125-1.465875-4.609125.052875 4.53825v4.732875c0 .60075-.459 1.094625-1.112625 1.094625-.635625 0-1.094625-.495-1.094625-1.094625v-9.44775c0-1.30725.7065-2.066625 1.942875-2.066625 1.1655 0 1.819125.617625 2.18925 1.74825l1.6245 4.820625.988875 3.285 1.006875-3.285 1.6245-4.820625c.37125-1.130625 1.006875-1.74825 2.172375-1.74825 1.236375 0 1.924875.741375 1.924875 2.066625z"/></g></g></svg>