<svg height="36" viewBox="0 0 168 36" width="168" xmlns="http://www.w3.org/2000/svg"><g fill="none" transform="translate(4 5)"><path d="m35.3460112 1.05649162v18.45763128c0 2.4863687 1.404067 3.9489386 3.8904357 3.9489386.8482905 0 1.5210727-.146257 2.0768492-.3802682v-2.8958883c-.2047598.0877542-.4680224.146257-.8775419.146257-.9652961 0-1.4918212-.4680223-1.4918212-1.7550838v-17.52158658zm8.3246033 22.17255868h3.5979218v-16.29302795h-3.5979218zm9.3191509-16.29302795h-3.9196872l5.5577654 16.29302795h4.0659441l5.2945028-16.29302795h-3.6564246l-2.4863687 8.51215645c-.5265251 1.9305921-.8190391 3.100648-1.0530503 4.3584581h-.1170056c-.2632625-1.2870615-.5557765-2.427866-1.111553-4.3584581zm23.2428156 12.28558655c-.6435307.6142794-1.9305922 1.3748157-3.6564246 1.3748157-2.954391 0-4.2999553-1.4625699-4.4169609-4.5632179h9.9747263c.146257-1.1700559.1755084-2.0475978.1755084-2.8666369 0-3.94893852-2.281609-6.52306142-6.3183017-6.52306142-4.2999553 0-7.371352 2.86663687-7.371352 8.39515082 0 5.7625252 2.5741229 8.482905 7.5468604 8.482905 2.808134 0 4.4462123-.7605363 5.6455195-1.696581zm-4.3877095-9.76996644c2.0475978 0 3.0128939 1.17005584 3.0421453 3.30540784v.7605363h-6.6693185c.1170056-2.6618771 1.6088268-4.06594414 3.6271732-4.06594414zm16.4272402 9.33119554c0 .9945475-.7312849 1.8135866-2.4278659 1.8135866-1.9305922 0-3.5101676-1.0237989-4.3292067-1.9305922l-2.1646033 2.5448715c.9360446.9652961 3.0421452 2.3108603 6.3183016 2.3108603 4.4169609 0 6.2012961-2.7496312 6.2012961-4.943486 0-5.4700112-7.8978771-4.3877095-7.8978771-7.2835978 0-.965296.7605363-1.69658096 2.2231062-1.69658096 1.404067 0 2.5741229.73128496 3.246905 1.46256986l2.3108603-2.34011176c-1.0530502-1.17005586-2.8958882-2.07684916-5.4700111-2.07684916-3.7149274 0-5.8795308 2.31086034-5.8795308 4.85573182 0 5.4700112 7.8686257 4.4169609 7.8686257 7.2835978zm11.1327375 4.5924693c2.4278658 0 3.6271728-.5265252 4.2122008-.9067933l-.965296-2.7496313c-.555776.4095195-1.374815.6727821-2.31086.6727821-1.1993074 0-1.9598437-.6435307-1.9598437-2.0475978v-8.62916197h4.2414527v-2.77888268h-4.2414527v-4.18294972h-2.3401118l-1.1993072 3.97818994-2.2231062.73128492v2.25235754h2.2231062v8.62916197c0 3.6271732 1.8135866 5.0312403 4.5632179 5.0312403zm8.5293628-8.3951509c0-3.685676.965296-5.44075975 3.363911-5.44075975 2.574123 0 3.597922 1.90134075 3.597922 5.64551955 0 3.6564246-.848291 5.4407598-3.422414 5.4407598-2.544871 0-3.539419-1.9305922-3.539419-5.6455196zm3.393162 8.5414078c5.206749 0 7.254347-3.4809162 7.254347-8.5121564s-1.725833-8.36589942-7.10809-8.36589942c-5.236 0-7.254346 3.48091622-7.254346 8.51215642 0 5.0019888 1.755084 8.3658994 7.108089 8.3658994zm19.14762-16.76105023c-.351016-.08775419-.906793-.14625699-1.462569-.14625699-2.047598 0-3.510168 1.05305028-4.18295 2.48636872h-.117006l-.760536-2.16460335h-2.778883v16.29302795h3.568671v-11.4372961c.877542-1.0530503 2.427866-1.6088268 3.890435-1.6088268.585028 0 1.25781.0585028 1.842838.1755084zm13.648358 2.16460335h-.117006c-.585028-1.28706145-1.696581-2.34011173-4.153698-2.34011173-1.959844 0-3.480916.8775419-4.270704 1.95984357h-.117005l-.643531-1.60882681h-2.895888v16.29302795h3.597921v-11.2910391c.380268-1.1993073 1.521073-2.28160897 2.954391-2.28160897 1.725833 0 2.632626 1.11155307 2.632626 3.27615647v10.2964916h3.627173v-11.4080447c.438771-1.1993073 1.638078-2.16460337 3.071397-2.16460337 1.46257 0 2.51562.87754187 2.51562 2.98364247v10.5890056h3.597922v-11.2325363c0-3.65642461-1.813587-5.41150841-5.001989-5.41150841-2.398615 0-4.036693 1.11155307-4.797229 2.34011173z" fill="#092f47"/><path d="m43.2025922 2.51906145c0 1.19930727.9652961 2.13535196 2.1646033 2.13535196 1.3163129 0 2.2523576-.93604469 2.2523576-2.13535196 0-1.31631285-.9360447-2.28160894-2.2523576-2.28160894-1.1993072 0-2.1646033.96529609-2.1646033 2.28160894z" fill="#c50000"/><g fill="#092f47"><path d="m4.30167598 13.3351955c0-.9503.77174325-1.7206704 1.72492612-1.7206704h17.1981924c.9526505 0 1.7249262.7723041 1.7249262 1.7206704 0 .9503-.7717433 1.7206704-1.7249262 1.7206704h-17.1981924c-.95265041 0-1.72492612-.772304-1.72492612-1.7206704zm4.30167598 6.8826816c0-.9503.77177241-1.7206704 1.71931054-1.7206704h8.6060716c.949549 0 1.7193106.7723041 1.7193106 1.7206704 0 .9503-.7717724 1.7206704-1.7193106 1.7206704h-8.6060716c-.94954899 0-1.71931054-.7723041-1.71931054-1.7206704zm-8.60335196-13.76536313c0-.95030002.76736836-1.72067039 1.72060191-1.72067039h25.81019279c.9502622 0 1.7206019.77230406 1.7206019 1.72067039 0 .95030001-.7673683 1.72067039-1.7206019 1.72067039h-25.81019279c-.95026219 0-1.72060191-.77230407-1.72060191-1.72067039z" opacity=".4"/><path d="m4.30167598 13.3351955c0-.9503.76649448-1.7206704 1.71845236-1.7206704h12.90946396c.9490751 0 1.7184524.7723041 1.7184524 1.7206704 0 .9503-.7664945 1.7206704-1.7184524 1.7206704h-12.90946396c-.94907503 0-1.71845236-.772304-1.71845236-1.7206704zm4.30167598 6.8826816c0-.9503.77073799-1.7206704 1.71842634-1.7206704h4.306164c.9490607 0 1.7184264.7723041 1.7184264 1.7206704 0 .9503-.770738 1.7206704-1.7184264 1.7206704h-4.306164c-.94906063 0-1.71842634-.7723041-1.71842634-1.7206704zm-8.60335196-13.76536313c0-.95030002.77405448-1.72067039 1.72473918-1.72067039h21.50024232c.9525471 0 1.7247392.77230406 1.7247392 1.72067039 0 .95030001-.7740545 1.72067039-1.7247392 1.72067039h-21.50024232c-.95254714 0-1.72473918-.77230407-1.72473918-1.72067039z"/></g></g></svg>