<svg width="28" height="17" xmlns="http://www.w3.org/2000/svg"><g fill="#092F47" fill-rule="nonzero"><path d="M4.086 8.172c0-.902.733-1.634 1.639-1.634H22.06c.905 0 1.639.734 1.639 1.634 0 .903-.733 1.635-1.639 1.635H5.725a1.638 1.638 0 0 1-1.639-1.635zm4.086 6.538c0-.902.733-1.634 1.634-1.634h8.175a1.635 1.635 0 0 1 0 3.269H9.806a1.635 1.635 0 0 1-1.634-1.635zM0 1.634C0 .732.729 0 1.634 0h24.518a1.636 1.636 0 0 1 0 3.269H1.634A1.636 1.636 0 0 1 0 1.634z" opacity=".4"/><path d="M4.086 8.172c0-.902.728-1.634 1.633-1.634H17.98a1.635 1.635 0 0 1 0 3.269H5.72a1.635 1.635 0 0 1-1.633-1.635zm4.086 6.538c0-.902.733-1.634 1.633-1.634h4.09a1.635 1.635 0 0 1 0 3.269h-4.09a1.635 1.635 0 0 1-1.633-1.635zM0 1.634C0 .732.735 0 1.638 0h20.424c.904 0 1.638.734 1.638 1.634 0 .903-.735 1.635-1.638 1.635H1.638A1.638 1.638 0 0 1 0 1.634z"/></g></svg>