<svg height="48" viewBox="0 0 175 48" width="175" xmlns="http://www.w3.org/2000/svg"><g fill="#788ca1" transform="translate(0 10)"><path d="m40.1659218 1.20055866v20.97458104c0 2.825419 1.5955307 4.4874301 4.4209497 4.4874301.9639665 0 1.7284916-.1662011 2.3600559-.4321229v-3.2907821c-.2326816.0997207-.5318436.1662011-.9972067.1662011-1.0969274 0-1.6952514-.5318436-1.6952514-1.9944134v-19.91089384zm9.4597765 25.19608934h4.0885475v-18.51480442h-4.0885475zm10.5899442-18.51480442h-4.45419l6.3156425 18.51480442h4.620391l6.0164805-18.51480442h-4.155028l-2.8254189 9.67290502c-.5983241 2.1938548-.9307263 3.5234637-1.1966481 4.9527933h-.1329609c-.299162-1.4625698-.6315642-2.7589385-1.2631285-4.9527933zm26.4122905 13.96089382c-.731285.6980447-2.1938548 1.5622905-4.155028 1.5622905-3.3572625 0-4.8863128-1.6620111-5.0192737-5.1854748h11.3349162c.1662011-1.329609.1994413-2.3268157.1994413-3.2575419 0-4.4874302-2.5927374-7.41256986-7.1798882-7.41256986-4.8863129 0-8.3765364 3.25754186-8.3765364 9.53994416 0 6.548324 2.9251397 9.6396648 8.5759777 9.6396648 3.1910615 0 5.052514-.8642458 6.4153631-1.927933zm-4.9860336-11.1022346c2.3268157 0 3.4237431 1.3296089 3.4569833 3.7561452v.8642459h-7.578771c.1329609-3.0248604 1.8282123-4.6203911 4.1217877-4.6203911zm18.6673186 10.6036313c0 1.1301676-.8310057 2.0608938-2.7589387 2.0608938-2.1938547 0-3.9888268-1.1634078-4.919553-2.1938547l-2.4597766 2.8918994c1.0636872 1.0969274 3.4569833 2.6259777 7.1798883 2.6259777 5.019274 0 7.046927-3.124581 7.046927-5.6175978 0-6.2159218-8.97486-4.9860335-8.97486-8.2768156 0-1.0969274.8642458-1.927933 2.526257-1.927933 1.5955307 0 2.92514.8310056 3.689665 1.6620112l2.625977-2.65921789c-1.196648-1.32960894-3.290782-2.36005587-6.2159213-2.36005587-4.2215084 0-6.6812849 2.62597766-6.6812849 5.51787706 0 6.2159218 8.9416202 5.0192738 8.9416202 8.2768157zm12.650838 5.2187151c2.758938 0 4.121788-.5983241 4.786592-1.030447l-1.096927-3.124581c-.631565.4653632-1.562291.7645252-2.625978.7645252-1.362849 0-2.227095-.7312849-2.227095-2.3268157v-9.8058659h4.819832v-3.15782122h-4.819832v-4.75335196h-2.659218l-1.362849 4.52067039-2.526257.83100559v2.5594972h2.526257v9.8058659c0 4.1217877 2.060894 5.7173185 5.185475 5.7173185zm9.692458-9.5399442c0-4.1882681 1.096927-6.1826815 3.822626-6.1826815 2.925139 0 4.088547 2.1606145 4.088547 6.4153631 0 4.1550279-.963966 6.1826816-3.889106 6.1826816-2.891899 0-4.022067-2.1938548-4.022067-6.4153632zm3.855866 9.7061453c5.91676 0 8.243575-3.9555866 8.243575-9.672905 0-5.7173185-1.961173-9.50670396-8.077374-9.50670396-5.95 0-8.243575 3.95558656-8.243575 9.67290506 0 5.6840782 1.994413 9.5067039 8.077374 9.5067039zm21.758659-19.04664807c-.398883-.09972067-1.030447-.16620111-1.662011-.16620111-2.326816 0-3.988827 1.19664804-4.753352 2.82541898h-.132961l-.864246-2.45977652h-3.157821v18.51480442h4.055307v-12.9969273c.997207-1.1966481 2.758939-1.8282123 4.42095-1.8282123.664804 0 1.42933.0664804 2.094134.1994413zm15.509497 2.45977657h-.132961c-.664804-1.46256986-1.927933-2.65921791-4.720111-2.65921791-2.227095 0-3.955587.99720671-4.853073 2.22709498h-.132961l-.731285-1.82821229h-3.290782v18.51480442h4.088548v-12.8307262c.432123-1.3628492 1.728491-2.5927374 3.357262-2.5927374 1.961173 0 2.99162 1.2631284 2.99162 3.722905v11.7005586h4.121788v-12.9636871c.498603-1.3628492 1.861453-2.4597765 3.490223-2.4597765 1.662012 0 2.85866.9972067 2.85866 3.3905028v12.0329608h4.088547v-12.7642458c0-4.1550279-2.060894-6.14944131-5.684078-6.14944131-2.725698 0-4.587151 1.2631285-5.451397 2.65921791z"/><path d="m49.0938547 2.86256983c0 1.36284916 1.0969274 2.42653632 2.4597766 2.42653632 1.49581 0 2.5594972-1.06368716 2.5594972-2.42653632 0-1.49581005-1.0636872-2.59273743-2.5594972-2.59273743-1.3628492 0-2.4597766 1.09692738-2.4597766 2.59273743z"/><path d="m4.88826816 15.1536313c0-1.0798864.87698097-1.9553073 1.96014332-1.9553073h19.54340052c1.0825573 0 1.9601433.8776183 1.9601433 1.9553073 0 1.0798864-.876981 1.9553072-1.9601433 1.9553072h-19.54340052c-1.08255728 0-1.96014332-.8776182-1.96014332-1.9553072zm4.88826815 7.821229c0-1.0798863.87701409-1.9553072 1.95376199-1.9553072h9.7796268c1.079033 0 1.9537621.8776182 1.9537621 1.9553072 0 1.0798864-.8770142 1.9553073-1.9537621 1.9553073h-9.7796268c-1.0790329 0-1.95376199-.8776183-1.95376199-1.9553073zm-9.77653631-15.64245807c0-1.07988638.8720095-1.95530726 1.95522944-1.95530726h29.32976456c1.0798434 0 1.9552295.87761826 1.9552295 1.95530726 0 1.07988639-.8720095 1.95530727-1.9552295 1.95530727h-29.32976456c-1.0798434 0-1.95522944-.87761826-1.95522944-1.95530727z"/><path d="m4.88826816 15.1536313c0-1.0798864.87101645-1.9553073 1.95278677-1.9553073h14.66984547c1.0784943 0 1.9527868.8776183 1.9527868 1.9553073 0 1.0798864-.8710165 1.9553072-1.9527868 1.9553072h-14.66984547c-1.07849435 0-1.95278677-.8776182-1.95278677-1.9553072zm4.88826815 7.821229c0-1.0798863.87583859-1.9553072 1.95275729-1.9553072h4.8933681c1.0784781 0 1.9527573.8776182 1.9527573 1.9553072 0 1.0798864-.8758386 1.9553073-1.9527573 1.9553073h-4.8933681c-1.0784781 0-1.95275729-.8776183-1.95275729-1.9553073zm-9.77653631-15.64245807c0-1.07988638.87960737-1.95530726 1.95993089-1.95530726h24.43209351c1.0824399 0 1.9599309.87761826 1.9599309 1.95530726 0 1.07988639-.8796074 1.95530727-1.9599309 1.95530727h-24.43209351c-1.08243994 0-1.95993089-.87761826-1.95993089-1.95530727z"/></g></svg>