<svg height="126" viewBox="0 0 120 126" width="120" xmlns="http://www.w3.org/2000/svg"><path d="m20.6927 21.9315c3.8909 3.1609 5.3505 2.9197 12.6565 2.4323l68.8788-4.1359c1.461 0 .246-1.4574-.241-1.6996l-11.4393-8.2697c-2.1919-1.70161-5.1121-3.65042-10.709-3.16297l-66.6954 4.86457c-2.4323.2412-2.9182 1.4573-1.9494 2.4322zm4.1354 16.052v72.4725c0 3.895 1.9464 5.352 6.3272 5.111l75.6977-4.38c4.383-.241 4.871-2.92 4.871-6.084v-71.9861c0-3.1589-1.215-4.8625-3.898-4.6193l-79.105 4.6193c-2.9192.2453-3.8929 1.7056-3.8929 4.8666zm74.7286 3.8876c.4853 2.1911 0 4.3801-2.1949 4.6263l-3.6475.7267v53.5039c-3.1666 1.702-6.0868 2.675-8.5201 2.675-3.8959 0-4.8716-1.217-7.7898-4.863l-23.8573-37.453v36.2369l7.5493 1.7036s0 4.3755-6.0907 4.3755l-16.7909.974c-.4878-.974 0-3.404 1.7031-3.891l4.3817-1.2143v-47.9117l-6.0838-.4875c-.4878-2.191.7273-5.35 4.1374-5.5952l18.0129-1.2142 24.8281 37.9405v-33.5634l-6.3302-.7266c-.4859-2.6785 1.4586-4.6234 3.8929-4.8646zm-92.0133-36.47706 69.3741-5.108764c8.5191-.730678 10.711-.2412332 16.0655 3.648404l22.145 15.56452c3.654 2.6765 4.872 3.4052 4.872 6.3229v85.3659c0 5.35-1.949 8.514-8.763 8.998l-80.5636 4.865c-5.115.244-7.5494-.485-10.2281-3.892l-16.30795-21.1586c-2.92219-3.8946-4.13735-6.8084-4.13735-10.2175v-75.8789c0-4.3751 1.94945-8.0245 7.5434-8.50896z" fill="#323232" fill-rule="evenodd"/></svg>