<svg height="32" width="32" xmlns="http://www.w3.org/2000/svg"><path d="m14.231 0c4.9 0 12.306 1.572 15.753 5.177.873.914 2.016 2.705 2.016 5.327 0 4.662-3.591 11.814-7.557 15.963-2.05 2.144-5.311 4.947-9.698 4.947-4.288 0-7.563-3.046-8.511-4.039-3.632-3.798-6.234-9.565-6.234-14.942 0-3.392.925-6.36 3.284-8.826 2.184-2.284 5.949-3.607 10.946-3.607zm6.066 18.592c1.654-1.732 2.1-3.864 2.1-5.037 0-.851-.214-2.1-1.231-3.162-1.56-1.633-3.29-2.094-5.17-2.094-2.38 0-3.98.788-5.046 1.903-.836.874-1.559 2.218-1.559 4.128 0 1.908.973 3.752 2.033 4.86.98 1.024 2.518 1.782 4.068 1.782s3.15-.649 4.805-2.38z" fill="#5952ff"/></svg>