<svg height="199" viewBox="0 0 601 199" width="601" xmlns="http://www.w3.org/2000/svg"><g fill="#788ca1"><path d="m8.2.7 18.2 42.7h-23.2l7.7 18.8h47z"/><path d="m70 156.2-7.8-18.8h-10.7l-15.4-36.2h-9.6l15.3 36.2h-27.3l50.5 61.5-18.2-42.7z"/><g transform="translate(0 66)"><path d="m76.2 15c.6 0 1.9-.7 1.9-7.2s-1.3-7.2-1.9-7.2h-32.3l6.1 14.4z"/><path d="m57.4 32.4h21.7c.6 0 1.9-.7 1.9-7.2s-1.3-7.2-1.9-7.2h-27.9z"/><path d="m76.2 52.6h-29.2l6.1 14.5h23.1c.6 0 1.9-.7 1.9-7.2 0-6.6-1.3-7.3-1.9-7.3"/><path d="m79.1 35.2h-39.5l6.1 14.5h33.3c.6 0 1.9-.7 1.9-7.2.1-6.6-1.2-7.3-1.8-7.3"/><path d="m76.2 52.6h-29.2l6.1 14.5h23.1c.6 0 1.9-.7 1.9-7.2 0-6.6-1.3-7.3-1.9-7.3"/><path d="m79.1 35.2h-39.5l6.1 14.5h33.3c.6 0 1.9-.7 1.9-7.2.1-6.6-1.2-7.3-1.8-7.3"/><path d="m34.9 32.3-7.4-17.3h3.5l7.4 17.4h15.6l-13.5-31.8h-33.7c-2.6 0-4 0-5.2 3.8-1.4 4.5-1.6 13-1.6 29.5s.2 25 1.6 29.5c1.2 3.8 2.6 3.8 5.2 3.8h29.6l-14.7-34.7z"/><path d="m203.9 4.9h-15.9l-23.1 59.2h16.2l4.1-10.1h21.1l3.8 10.1h16.3zm-14.5 37.6 6.3-19h.2l6.2 19z"/><path d="m143.5 4.9h-23.4v59.3h15.9v-20.2h8c13.3 0 20.8-5.8 20.8-19.7 0-13.6-8.7-19.4-21.3-19.4m-5.6 27.4h-2v-14.5000693l2 .0000693c5.9 0 11-.1 11 7.3 0 7.2-5.4 7.2-11 7.2"/><path d="m442.5 41h15.9v-13h-15.9v-10.1h21.6v-13h-37.5v59.3h37.5v-14.5h-21.6z"/><path d="m303.7 20.8h14.4l.1 43.3h15.8v-43.3h14.5v-15.9h-44.8z"/><path d="m397.6 28h-21.6v-23.1h-16v59.2h16v-23.1h21.6v23.1h15.9v-59.2h-15.9z"/><path d="m502.5 20.8c7.6 0 13.7 6.2 13.7 13.7 0 7.6-6.2 13.7-13.7 13.7-7.6 0-13.7-6.2-13.7-13.7-.1-7.6 6.1-13.7 13.7-13.7m0-15.9c-16.4 0-29.6 13.3-29.6 29.6s13.3 29.6 29.6 29.6c16.4 0 29.6-13.3 29.6-29.6s-13.3-29.6-29.6-29.6"/><path d="m584.1 38.1-25.5-33.2h-14.9v59.3h15.9v-33.3l24.3 33.3h16.2v-59.3h-16z"/><path d="m276.1 38.1-25.4-33.2h-15v59.3h16l-.1-33.3 24.4 33.3h16.1v-59.3h-15.9z"/></g></g></svg>