<svg height="199" viewBox="0 0 81 199" width="81" xmlns="http://www.w3.org/2000/svg"><g fill="none"><path d="m8.2.7 18.2 42.7h-23.2l7.7 18.8h47z" fill="#f0d500"/><path d="m70 156.2-7.8-18.8h-10.7l-15.4-36.2h-9.6l15.3 36.2h-27.3l50.5 61.5-18.2-42.7z" fill="#f0d500"/><g fill="#040000" transform="translate(0 66)"><path d="m76.2 15c.6 0 1.9-.7 1.9-7.2s-1.3-7.2-1.9-7.2h-32.3l6.1 14.4z"/><path d="m57.4 32.4h21.7c.6 0 1.9-.7 1.9-7.2s-1.3-7.2-1.9-7.2h-27.9z"/><path d="m76.2 52.6h-29.2l6.1 14.5h23.1c.6 0 1.9-.7 1.9-7.2 0-6.6-1.3-7.3-1.9-7.3"/><path d="m79.1 35.2h-39.5l6.1 14.5h33.3c.6 0 1.9-.7 1.9-7.2.1-6.6-1.2-7.3-1.8-7.3"/><path d="m76.2 52.6h-29.2l6.1 14.5h23.1c.6 0 1.9-.7 1.9-7.2 0-6.6-1.3-7.3-1.9-7.3"/><path d="m79.1 35.2h-39.5l6.1 14.5h33.3c.6 0 1.9-.7 1.9-7.2.1-6.6-1.2-7.3-1.8-7.3"/><path d="m34.9 32.3-7.4-17.3h3.5l7.4 17.4h15.6l-13.5-31.8h-33.7c-2.6 0-4 0-5.2 3.8-1.4 4.5-1.6 13-1.6 29.5s.2 25 1.6 29.5c1.2 3.8 2.6 3.8 5.2 3.8h29.6l-14.7-34.7z"/></g></g></svg>