<?xml version="1.0" encoding="UTF-8"?>
<svg width="22px" height="16px" viewBox="0 0 22 16" version="1.1" xmlns="http://www.w3.org/2000/svg" xmlns:xlink="http://www.w3.org/1999/xlink">
    <!-- Generator: Sketch 64 (93537) - https://sketch.com -->
    <title>Combined Shape</title>
    <desc>Created with Sketch.</desc>
    <g id="Page-1" stroke="none" stroke-width="1" fill="none" fill-rule="evenodd">
        <g id="salesforce" fill="#FFFFFF" fill-rule="nonzero">
            <path d="M5.75760683,-1.77635684e-15 C7.1431054,-1.77635684e-15 8.37441594,0.6844676 9.15507119,1.7450342 C9.86458686,0.9768805 10.8523931,0.5004885 11.9448717,0.5004885 C13.3971225,0.5004885 14.6641595,1.3419082 15.3388889,2.5910127 C15.9252422,2.3187887 16.5742735,2.1673722 17.2571509,2.1673722 C19.8764672,2.1673722 22,4.3930316 22,7.13839143 C22,9.88407686 19.8764672,12.1097362 17.2571509,12.1097362 C16.9374929,12.1097362 16.6250427,12.0765223 16.3229344,12.0130251 C15.7287464,13.114295 14.5964672,13.8583523 13.2968376,13.8583523 C12.752792,13.8583523 12.2382051,13.727776 11.7800285,13.495604 C11.1776923,14.9677629 9.77433046,16 8.13874642,16 C6.43547008,16 4.98384614,14.8801693 4.42663817,13.3096711 C4.1831339,13.3633995 3.9308547,13.3914035 3.6719943,13.3914035 C1.64404558,13.3914035 4.38803542e-15,11.6655812 4.12727458e-15,9.53630741 C3.95253012e-15,8.10941064 0.738660968,6.86356242 1.83615384,6.19700423 C1.61019943,5.6567894 1.48452991,5.0605666 1.48452991,4.433735 C1.48452991,1.9850212 3.39777777,-1.77635684e-15 5.75760683,-1.77635684e-15 Z M12.8709777,6.05578196 C12.6348006,6.05578196 12.4486827,6.1231384 12.3180794,6.25590836 C12.1881178,6.38803058 12.0998723,6.58912844 12.0555891,6.85369677 L12.0555891,6.85369677 L12.0395444,6.94274976 L11.7430395,6.94274976 L11.7334365,6.94387716 C11.7222171,6.94641982 11.7045324,6.95462349 11.6993981,6.98096159 L11.6993981,6.98096159 L11.6509433,7.2552448 L11.6526547,7.27775692 C11.6575038,7.29032628 11.6701969,7.29766641 11.6933012,7.29766641 L11.6933012,7.29766641 L11.9817838,7.29766641 L11.6891296,8.94660396 L11.6651933,9.07139808 C11.6484831,9.149213 11.6302992,9.21613767 11.6108317,9.27140449 C11.5822723,9.35300941 11.5543546,9.4142131 11.5196982,9.45890152 C11.4863253,9.50164695 11.4548778,9.5333822 11.400326,9.55184045 C11.3554011,9.56706042 11.3034164,9.57418466 11.2466184,9.57418466 C11.2151709,9.57418466 11.173134,9.5690034 11.1420073,9.56252682 C11.1112016,9.55637406 11.0948361,9.54957365 11.071411,9.53953495 C11.071411,9.53953495 11.0377172,9.52658179 11.0242397,9.56058384 C11.0136503,9.58875697 10.9366359,9.80216031 10.9273301,9.82839047 C10.9183451,9.85462062 10.9311808,9.87502185 10.9475463,9.8811746 C10.9860535,9.89477542 11.0146129,9.90384264 11.0669185,9.91647197 C11.1394402,9.93363491 11.2007308,9.9346064 11.2581705,9.9346064 C11.3781844,9.9346064 11.4879297,9.91744346 11.5787424,9.8844129 C11.669876,9.8510585 11.7494574,9.7930931 11.8200538,9.71472647 C11.8961054,9.62988325 11.9439185,9.5411541 11.9894851,9.4197182 C12.034731,9.29990145 12.0735591,9.15094009 12.1043648,8.97736772 L12.1043648,8.97736772 L12.3986234,7.29766641 L12.8286198,7.29766641 L12.8382941,7.29652701 C12.8495848,7.29396036 12.8673409,7.28568473 12.8722612,7.25913075 L12.8722612,7.25913075 L12.921037,6.98517137 L12.919171,6.96251533 C12.9142982,6.94994596 12.9016764,6.94274976 12.8783582,6.94274976 L12.8783582,6.94274976 L12.4608766,6.94274976 L12.4634468,6.92716099 C12.470236,6.88416369 12.4900244,6.76178329 12.5298686,6.64547469 C12.5504058,6.58621396 12.5889129,6.53796347 12.6213231,6.50493289 C12.6534124,6.47254996 12.690315,6.44955813 12.7307475,6.43628116 C12.7721427,6.42268027 12.8193139,6.41620373 12.8709777,6.41620373 C12.9101266,6.41620373 12.9489546,6.42073733 12.9781558,6.42689004 C13.0185883,6.43563342 13.0343121,6.44016711 13.0449015,6.44340533 C13.0875803,6.45635849 13.0933564,6.44372916 13.1016996,6.42300409 L13.1016996,6.42300409 L13.2014972,6.14645413 L13.2018181,6.122083 C13.1966838,6.10924978 13.1834202,6.10284515 13.1774303,6.1004704 C13.1357142,6.08751724 13.0978488,6.07877387 13.0484313,6.06938284 C12.9983721,6.06031556 12.938686,6.05578196 12.8709777,6.05578196 Z M10.5989607,6.896117 L10.5527522,6.89644084 L10.4406981,6.90272789 C10.0785787,6.94429528 9.83459412,7.1885052 9.83459412,7.53146961 L9.83459412,7.53146961 L9.84401906,7.64066639 C9.89952998,7.94591251 10.1908172,8.05613745 10.4654693,8.1354108 L10.4654693,8.1354108 L10.5145659,8.15063076 L10.5962137,8.17626828 C10.7819197,8.23608622 10.9288385,8.29959213 10.9288385,8.44466755 L10.9288385,8.44466755 L10.9213382,8.50409915 C10.8916215,8.6176187 10.7753143,8.69660655 10.6031323,8.69660655 C10.5251554,8.69660655 10.2764635,8.6949874 10.0078763,8.52368184 C9.97546607,8.50457592 9.95621247,8.49129893 9.93182469,8.47543131 C9.92348148,8.46992621 9.88433251,8.45470625 9.87085503,8.4964802 L9.87085503,8.4964802 L9.77972147,8.75165749 L9.77494374,8.78011847 C9.77679779,8.79393517 9.78635326,8.79882859 9.78934831,8.80314631 C9.83170615,8.8342339 9.87470575,8.85657811 9.91802624,8.88151294 C10.1477855,9.00456798 10.364709,9.040513 10.5915803,9.040513 C11.0536658,9.040513 11.340544,8.79245996 11.340544,8.38540683 L11.340544,8.38540683 L11.3311742,8.28151243 C11.2759868,7.98980107 10.9863747,7.87249399 10.7128777,7.78535159 L10.7128777,7.78535159 L10.5892876,7.74450423 C10.3979615,7.67958599 10.2466205,7.61246736 10.2466205,7.4722089 L10.2466205,7.4722089 L10.2535417,7.41869874 C10.2809233,7.31659912 10.3877217,7.24617621 10.5412001,7.24617621 C10.7401536,7.24617621 10.9763307,7.312885 11.1284338,7.39772821 C11.1284338,7.39772821 11.1730379,7.42687283 11.1894035,7.3831559 C11.1983885,7.35984021 11.2754027,7.15064665 11.283425,7.12797861 C11.2920891,7.1033676 11.2766863,7.08523317 11.2609626,7.0755183 C11.0873595,6.96897854 10.8473318,6.896117 10.5989607,6.896117 L10.5989607,6.896117 Z M3.83421991,6.896117 L3.78801135,6.89644084 L3.67595733,6.90272789 C3.3138379,6.94429528 3.06985331,7.1885052 3.06985331,7.53146961 L3.06985331,7.53146961 L3.07927825,7.64066639 C3.13478917,7.94591251 3.42607638,8.05613745 3.70072851,8.1354108 L3.70072851,8.1354108 L3.74982511,8.15063076 L3.83145911,8.17626828 C4.01710373,8.23608622 4.1637768,8.29959213 4.1637768,8.44466755 L4.1637768,8.44466755 L4.15629429,8.50409915 C4.12664492,8.6176187 4.01057342,8.69660655 3.83839152,8.69660655 C3.76041457,8.69660655 3.51172267,8.6949874 3.24313541,8.52368184 C3.21072524,8.50457592 3.19179256,8.49065127 3.16676293,8.47543131 C3.15360633,8.46701175 3.12055437,8.45243944 3.10611419,8.4964802 L3.10611419,8.4964802 L3.01498065,8.75165749 L3.01020291,8.78011847 C3.01205695,8.79393517 3.02161243,8.79882859 3.02460743,8.80314631 C3.06696527,8.8342339 3.10996491,8.85657811 3.15328543,8.88151294 C3.38304466,9.00456798 3.59996818,9.040513 3.82683938,9.040513 C4.28892498,9.040513 4.57580313,8.79245996 4.57580313,8.38540683 L4.57580313,8.38540683 L4.56643338,8.28151243 C4.51124592,7.98980107 4.22163377,7.87249399 3.94813685,7.78535159 L3.94813685,7.78535159 L3.90866704,7.77239843 L3.82454675,7.74450423 C3.6332207,7.67958599 3.48187964,7.61246736 3.48187964,7.4722089 L3.48187964,7.4722089 L3.48880082,7.41869874 C3.51618242,7.31659912 3.62298078,7.24617621 3.77645922,7.24617621 C3.97541274,7.24617621 4.21158982,7.312885 4.363693,7.39772821 C4.363693,7.39772821 4.4082971,7.42687283 4.42466263,7.3831559 C4.43364763,7.35984021 4.51066189,7.15064665 4.51868422,7.12797861 C4.52734832,7.1033676 4.51194546,7.08523317 4.49622172,7.0755183 C4.32261873,6.96897854 4.08259093,6.896117 3.83421991,6.896117 L3.83421991,6.896117 Z M19.1354144,6.9023026 C18.9724008,6.9023026 18.8244692,6.92982807 18.7044554,6.98682198 C18.5841206,7.04381589 18.4830394,7.12153487 18.4037788,7.21835975 C18.3245183,7.31486081 18.2648322,7.42982013 18.2269669,7.56032323 C18.1887806,7.69017869 18.1695271,7.83169199 18.1695271,7.98097718 C18.1695271,8.132853 18.1894224,8.2743663 18.2288923,8.40163111 C18.2686829,8.52986743 18.3322198,8.64288376 18.418219,8.73647036 C18.5038974,8.83070462 18.6142845,8.90453764 18.7464923,8.95602646 C18.8777374,9.00719145 19.0372211,9.03374544 19.2204509,9.0334274 C19.5975,9.03212629 19.7961326,8.94728307 19.8779603,8.90162318 C19.8924004,8.89352745 19.9061988,8.87927897 19.8888706,8.83847651 L19.8888706,8.83847651 L19.8035131,8.59722387 L19.7904267,8.57851768 C19.7748133,8.56708752 19.7544165,8.57455583 19.7544165,8.57455583 C19.6610367,8.60952937 19.5281871,8.67235221 19.2185256,8.67170455 C19.0160422,8.67138072 18.8658644,8.61114852 18.7718428,8.51691426 C18.6752541,8.4204132 18.6280828,8.27857607 18.6197396,8.07844972 L18.6197396,8.07844972 L19.9254524,8.07974503 C19.9449199,8.0756432 19.9609645,8.06787131 19.9633177,8.04541916 C19.9646013,8.03117068 20.0082427,7.77469807 19.9244897,7.47774682 C19.8917586,7.35307263 19.8105728,7.22710313 19.7573046,7.16946157 C19.6732307,7.07814177 19.5910821,7.01434744 19.5095754,6.97872625 C19.4030389,6.93274253 19.2753236,6.9023026 19.1354144,6.9023026 Z M13.8985098,6.90220547 C13.7419142,6.90220547 13.6026467,6.9303786 13.484879,6.98575336 C13.3667905,7.04145196 13.2673137,7.11787562 13.1883741,7.21308136 C13.1100763,7.3082871 13.051032,7.42227493 13.0128458,7.5511589 C12.9753013,7.67971903 12.9563686,7.82026084 12.9563686,7.96954604 C12.9563686,8.11883123 12.9753013,8.25969686 13.0128458,8.38793317 C13.051032,8.51681714 13.1097554,8.63080496 13.188695,8.7260107 C13.2673137,8.82121644 13.3671114,8.89731628 13.484879,8.95139572 C13.6029676,9.00547518 13.7419142,9.03300065 13.8985098,9.03300065 C14.0547846,9.03300065 14.1937312,9.00547518 14.3118197,8.95139572 C14.4295874,8.89731628 14.529385,8.82121644 14.6080038,8.7260107 C14.6866225,8.63112879 14.7456668,8.51714096 14.7835321,8.38793317 C14.8213975,8.25937304 14.8403302,8.1185074 14.8403302,7.96954604 C14.8403302,7.82058467 14.8213975,7.67971903 14.7835321,7.5511589 C14.7456668,7.4219511 14.6866225,7.30796327 14.6080038,7.21308136 C14.529385,7.11787562 14.4299082,7.04145196 14.3118197,6.98575336 C14.1940521,6.9303786 14.0547846,6.90220547 13.8985098,6.90220547 Z M8.67854576,6.9023026 C8.51585314,6.9023026 8.36760067,6.92982807 8.24758677,6.98682198 C8.12725198,7.04381589 8.02617075,7.12153487 7.94691023,7.21835975 C7.86764972,7.31486081 7.80796366,7.42982013 7.77009831,7.56032323 C7.73223297,7.69017869 7.71265851,7.83169199 7.71265851,7.98097718 C7.71265851,8.132853 7.73255385,8.2743663 7.77202367,8.40163111 C7.81181437,8.52986743 7.87535114,8.64288376 7.9613504,8.73647036 C8.04702878,8.83070462 8.1574159,8.90453764 8.28962373,8.95602646 C8.42086887,9.00719145 8.58035262,9.03374544 8.7635824,9.0334274 C9.14063139,9.03212629 9.33926397,8.94728307 9.42109167,8.90162318 C9.4355318,8.89352745 9.44933025,8.87927897 9.43200206,8.83847651 L9.43200206,8.83847651 L9.34696541,8.59722387 L9.33369349,8.57851768 C9.31794467,8.56708752 9.29754791,8.57455583 9.29754791,8.57455583 C9.20416815,8.60952937 9.0716394,8.67235221 8.76133611,8.67170455 C8.5591737,8.67138072 8.40899584,8.61114852 8.31497426,8.51691426 C8.21838552,8.4204132 8.17121429,8.27857607 8.16287107,8.07844972 L8.16287107,8.07844972 L9.46858377,8.07974503 C9.48805129,8.0756432 9.50409594,8.06787131 9.50644911,8.04541916 C9.50773274,8.03117068 9.55137412,7.77469807 9.46730022,7.47774682 C9.43456915,7.35307263 9.3537042,7.22710313 9.30043597,7.16946157 C9.21636208,7.07814177 9.1342135,7.01434744 9.05270678,6.97872625 C8.94617033,6.93274253 8.81845506,6.9023026 8.67854576,6.9023026 Z M5.68971824,6.90013341 C5.59184595,6.90013341 5.43428759,6.91373423 5.33994511,6.93284015 C5.33994511,6.93284015 5.05467143,6.98853875 4.93722468,7.08115386 C4.93722468,7.08115386 4.91155325,7.09734531 4.92567253,7.13361416 L4.92567253,7.13361416 L5.01808965,7.38425785 L5.0342888,7.40419133 C5.04693435,7.41052399 5.0607684,7.40563057 5.0607684,7.40563057 C5.0607684,7.40563057 5.07071607,7.40174462 5.08226821,7.3949442 C5.33352726,7.25699303 5.65121111,7.26120281 5.65121111,7.26120281 C5.79240393,7.26120281 5.9008657,7.28969977 5.97402925,7.34636985 C6.04526745,7.40142079 6.08152833,7.48464485 6.08152833,7.6601602 L6.08152833,7.6601602 L6.08152833,7.7158588 L6.01600716,7.7069807 C5.93213349,7.69628657 5.86620928,7.6902763 5.86620928,7.6902763 C5.81326196,7.68639036 5.74459091,7.68412356 5.66244236,7.68412356 C5.55045077,7.68412356 5.44230991,7.69837204 5.3409078,7.7258975 C5.23886389,7.75342297 5.14708855,7.79649224 5.06814893,7.85348615 C4.98888841,7.91080389 4.92503074,7.98398926 4.87882219,8.07077545 C4.83261363,8.15756164 4.80918845,8.25989162 4.80918845,8.3745271 C4.80918845,8.49110556 4.82908381,8.59246405 4.86887451,8.67536429 C4.90866521,8.75858836 4.96610503,8.82788778 5.03926858,8.88131957 C5.11179035,8.93475136 5.20131943,8.97393468 5.30528869,8.9975742 C5.40765349,9.02121372 5.52381668,9.0331954 5.65089022,9.0331954 C5.78470251,9.0331954 5.9181939,9.02218521 6.04751369,8.999841 C6.17554992,8.97782063 6.33278737,8.94576155 6.3764288,8.93572285 C6.41974932,8.92536032 6.46788324,8.91208333 6.46788324,8.91208333 C6.48949002,8.90668618 6.49555133,8.88934333 6.49719145,8.87838112 L6.49719145,8.87838112 L6.49708448,7.66404615 L6.49126533,7.53764637 C6.47188548,7.33656502 6.40418602,7.18364575 6.28946685,7.08244917 C6.15244563,6.9613371 5.95060408,6.90013341 5.68971824,6.90013341 Z M17.4567951,6.90023006 C17.2947442,6.90023006 17.1503424,6.92807936 17.0267987,6.98377796 C16.9035759,7.03915273 16.7989648,7.11557638 16.7161745,7.21078212 C16.6333842,7.30598787 16.5704892,7.4199757 16.5284523,7.54885966 C16.4867362,7.6774198 16.4655572,7.81860926 16.4655572,7.96789445 C16.4655572,8.29075203 16.5518774,8.55175824 16.7222715,8.74281739 C16.8929865,8.93452419 17.1493798,9.03199673 17.48375,9.03199673 C17.68142,9.03199673 17.8842242,8.9915181 18.0299095,8.93355269 C18.0299095,8.93355269 18.0578272,8.91995188 18.0456333,8.88724515 L18.0456333,8.88724515 L17.9509699,8.62332446 L17.9378835,8.60364679 C17.9222701,8.59167017 17.9018733,8.59968494 17.9018733,8.59968494 C17.8457171,8.62138148 17.7860311,8.64145889 17.7224943,8.65149759 C17.6579948,8.66153629 17.5870775,8.66671756 17.5110259,8.66671756 C17.3242663,8.66671756 17.1760139,8.61069513 17.0697983,8.49994559 C16.963262,8.38919605 16.9035759,8.21011859 16.9042177,7.96789445 C16.9048595,7.74736687 16.9574859,7.58156639 17.0521493,7.45527307 C17.1461708,7.32962739 17.289289,7.2651854 17.4802202,7.2651854 C17.6393831,7.2651854 17.7606805,7.28364366 17.8877541,7.32412229 C17.8877541,7.32412229 17.9182388,7.33739929 17.9326791,7.29724449 C17.9663728,7.2026864 17.9914024,7.13500612 18.0273425,7.031057 C18.037611,7.00158856 18.0125814,6.98895923 18.0035964,6.9853971 C17.9535371,6.96564353 17.8354486,6.93358445 17.7462403,6.91998364 C17.6628082,6.90703047 17.5652568,6.90023006 17.4567951,6.90023006 Z M7.30685758,6.09823396 L6.96061428,6.09823396 C6.93879356,6.09823396 6.92339072,6.11604455 6.92339072,6.13806492 L6.92339072,6.13806492 L6.92339072,8.95019644 C6.92339072,8.97221681 6.93879356,8.99002741 6.96061428,8.99002741 L6.96061428,8.99002741 L7.30685758,8.99002741 C7.32867829,8.99002741 7.34440204,8.97221681 7.34440204,8.95019644 L7.34440204,8.95019644 L7.34440204,6.13806492 C7.34440204,6.11604455 7.32867829,6.09823396 7.30685758,6.09823396 L7.30685758,6.09823396 Z M16.0687593,6.9244617 L15.9930568,6.9304642 C15.9235669,6.93986042 15.8711972,6.95874613 15.8222932,6.98089604 C15.7414281,7.01781255 15.6515782,7.0773971 15.6015189,7.14507737 L15.6015189,7.14507737 L15.6015189,6.98478199 L15.5966342,6.96444073 C15.590359,6.95254301 15.5785216,6.94462719 15.5639745,6.94462719 L15.5639745,6.94462719 L15.2292833,6.94462719 L15.2098514,6.95007231 C15.1987271,6.95700465 15.1917388,6.96988585 15.1917388,6.98478199 L15.1917388,6.98478199 L15.1917388,8.95010052 L15.1972059,8.97029786 C15.2041467,8.98219558 15.2169824,8.99025532 15.2315295,8.99025532 L15.2315295,8.99025532 L15.5745639,8.99025532 L15.5944949,8.98473823 C15.6061897,8.97773393 15.6140337,8.96478077 15.6140337,8.95010052 L15.6140337,8.95010052 L15.6140337,7.96825082 L15.6167412,7.8702217 C15.6221563,7.77377125 15.635694,7.68433371 15.6573542,7.6224014 C15.6855928,7.54079648 15.7240999,7.47538301 15.7715921,7.42842779 C15.8194051,7.38179641 15.873636,7.34908968 15.9330011,7.33063142 C15.9936499,7.31184933 16.0607165,7.30569658 16.1082086,7.30569658 C16.1765588,7.30569658 16.2516477,7.32350718 16.2516477,7.32350718 C16.2766774,7.32642164 16.2907966,7.31087785 16.2991398,7.28788599 C16.3216023,7.22765378 16.3851391,7.04728099 16.397333,7.01133597 C16.4072807,6.98154369 16.3864227,6.96729522 16.3777586,6.96405693 C16.3556169,6.95531354 16.244588,6.93167402 16.1589096,6.92616893 L16.1589096,6.92616893 L16.0687593,6.9244617 Z M5.72758359,8.01637216 C5.91466408,8.0189628 6.08184922,8.0468121 6.08184922,8.0468121 L6.08184922,8.0468121 L6.08184922,8.64589585 L6.08217011,8.64589585 L6.07243574,8.64792002 C6.03434399,8.65566359 5.88958861,8.68346002 5.72950895,8.69317489 C5.46380973,8.70936634 5.34572118,8.61577974 5.34668386,8.61610357 C5.29566191,8.57497728 5.28860227,8.56461476 5.27127406,8.53806077 C5.24560263,8.49758214 5.23244603,8.43994057 5.23244603,8.3667552 C5.23244603,8.2508244 5.27031138,8.16760033 5.34893011,8.1115779 C5.34796743,8.11190173 5.46124259,8.01281004 5.72758359,8.01637216 Z M13.8985098,7.25938892 C14.0698666,7.25938892 14.1927686,7.31929729 14.2742753,7.44235233 C14.356103,7.56670268 14.397819,7.74416101 14.397819,7.96954604 C14.397819,8.19525488 14.356103,8.37303703 14.2739544,8.49868271 C14.1927686,8.62303307 14.0698666,8.68358909 13.8985098,8.68358909 C13.7268322,8.68358909 13.6045721,8.6233569 13.5246697,8.49868271 C13.4438048,8.37336086 13.4027305,8.19525488 13.4027305,7.96954604 C13.4027305,7.74416101 13.4438048,7.56670268 13.5246697,7.44235233 C13.6045721,7.31929729 13.7268322,7.25938892 13.8985098,7.25938892 Z M8.64774009,7.25139031 C8.81909683,7.25139031 8.93237197,7.31939442 9.01387869,7.44244946 C9.0674678,7.52373055 9.09089301,7.63253711 9.10019888,7.75332535 L9.10019888,7.75332535 L8.16896804,7.75332535 L8.19284484,7.63509177 C8.21235988,7.56104286 8.23924356,7.49663685 8.27454177,7.44244946 C8.35444406,7.31907059 8.47638332,7.25139031 8.64774009,7.25139031 Z M19.1046087,7.25139031 C19.2759654,7.25139031 19.3892406,7.31939442 19.4704264,7.44244946 C19.5243364,7.52373055 19.5477616,7.63253711 19.5570675,7.75332535 L19.5570675,7.75332535 L18.6258366,7.75332535 L18.6495708,7.63509177 C18.6690858,7.56104286 18.6961121,7.49663685 18.7314103,7.44244946 C18.8113126,7.31907059 18.9332518,7.25139031 19.1046087,7.25139031 Z" id="Combined-Shape"></path>
        </g>
    </g>
</svg>