<?xml version="1.0" encoding="UTF-8"?>
<svg width="74px" height="74px" viewBox="0 0 74 74" version="1.1" xmlns="http://www.w3.org/2000/svg" xmlns:xlink="http://www.w3.org/1999/xlink">
    <!-- Generator: Sketch 64 (93537) - https://sketch.com -->
    <title>prospector-plain</title>
    <desc>Created with Sketch.</desc>
    <defs>
        <linearGradient x1="15.5458193%" y1="14.8309949%" x2="83.6043074%" y2="82.3367926%" id="linearGradient-1">
            <stop stop-color="#FDCC50" offset="0%"></stop>
            <stop stop-color="#FCA000" offset="100%"></stop>
        </linearGradient>
    </defs>
    <g id="Page-1" stroke="none" stroke-width="1" fill="none" fill-rule="evenodd">
        <g id="Products----White---Blue-Title" transform="translate(-90.000000, -579.000000)">
            <g id="prospector-plain" transform="translate(90.000000, 579.000000)">
                <path d="M40.5274626,1.26180921 L57.9466103,7.60186049 C60.2179736,8.42856914 62.1254396,10.0291231 63.3340068,12.1224229 L72.6025417,28.1759962 C73.8111089,30.269296 74.2434963,32.7214869 73.8237653,35.1018996 L70.6048369,53.3573497 C70.1851059,55.7377624 68.940096,57.8941829 67.0884636,59.4478869 L52.8882443,71.3632857 C51.0366119,72.9169898 48.6967586,73.7686267 46.2796242,73.7686267 L27.7425544,73.7686267 C25.32542,73.7686267 22.9855666,72.9169898 21.1339343,71.3632857 L6.93371495,59.4478869 C5.08208258,57.8941829 3.83707263,55.7377624 3.41734165,53.3573497 L0.198413251,35.1018996 C-0.22131773,32.7214869 0.211069689,30.269296 1.41963688,28.1759962 L10.6881718,12.1224229 C11.896739,10.0291231 13.8042049,8.42856914 16.0755683,7.60186049 L33.494716,1.26180921 C35.7660793,0.435100562 38.2560992,0.435100562 40.5274626,1.26180921 Z" id="Polygon" fill="url(#linearGradient-1)"></path>
                <path d="M45.4956736,21.0004483 C48.3772259,20.9782403 50.9889012,22.6997734 52.1147818,25.3635535 C53.7231469,25.9641674 55.0725638,27.1092804 55.9305598,28.6016167 L55.9305598,28.6016167 L60.8784363,38.0112861 L60.747032,38.0112861 C62.2610744,42.0517677 61.3013546,46.6074113 58.2875721,49.6859677 C55.2737897,52.7645241 50.7543118,53.8058401 46.7055721,52.3545332 C42.6568323,50.9032263 39.8155116,47.2233663 39.4241609,42.9242096 C39.3907204,42.5868931 39.3738533,42.2481266 39.3736208,41.9091428 C39.3726622,41.1644289 39.4454613,40.4214654 39.5909433,39.6912217 C39.6886131,39.2335811 39.8152198,38.7826547 39.9699941,38.3411829 C39.3657542,37.0944403 38.1060579,36.3032393 36.7253192,36.3032393 C35.3445805,36.3032393 34.0848842,37.0944403 33.4806443,38.3411829 C33.6353825,38.7809419 33.7619905,39.2301777 33.8596951,39.6861464 L33.8596951,39.6861464 L33.9382538,40.1257312 C34.0313464,40.7136454 34.0777845,41.3082963 34.0770176,41.9040674 C34.0777769,42.2548962 34.0609087,42.60554 34.0264775,42.9546616 C33.5908398,47.56112 30.3516274,51.4111838 25.9016562,52.6116636 C21.4516849,53.8121434 16.7273156,52.1104347 14.0516594,48.3433177 C11.3760033,44.5762007 11.3120706,39.5363503 13.8912989,35.7020091 L13.8912989,35.7020091 L17.747509,28.637144 C18.561009,27.2062497 19.8276736,26.089669 21.3459646,25.4650602 C22.4368526,22.7658109 25.0481867,21 27.9490296,21 C30.8498725,21 33.4612067,22.7658109 34.5520946,25.4650602 C35.9336228,24.7672751 37.5625017,24.7672751 38.9440299,25.4650602 C40.0290651,22.7842406 42.6141213,21.0226564 45.4956736,21.0004483 Z M29.8741078,40.0114673 C28.8043451,36.4266162 25.1899174,34.2384749 21.5185264,34.9530752 C17.8471355,35.6676755 15.3167934,39.0518361 15.6690584,42.7763412 C16.0213234,46.5008462 19.1412479,49.350352 22.8814818,49.3636364 C26.90399,49.3691221 30.1708539,46.1148204 30.1818182,42.0913802 C30.1832511,41.3866261 30.0795439,40.6856014 29.8741078,40.0114673 Z M50.5475136,34.8181818 C47.3390443,34.8262866 44.510943,36.9309369 43.5746941,40.0073066 C43.3709751,40.6845553 43.2692293,41.3884914 43.2727273,42.0958514 C43.2837349,46.1148578 46.5383302,49.3663416 50.5475136,49.3636364 C53.3376553,49.3734733 55.8855231,47.776315 57.0981286,45.2572673 C58.3107341,42.7382197 57.9725705,39.7449733 56.2287036,37.5615759 L56.2287036,37.5615759 L55.8525969,37.1002108 L55.8229043,37.1002108 C54.4547266,35.641213 52.5450541,34.8151297 50.5475136,34.8181818 Z M22.8492271,35.8 C26.246504,35.8 29,38.6801379 29,42.2336661 C29,43.3510339 28.7277567,44.4018223 28.2488594,45.3174254 C28.0875456,45.625841 27.8390167,45.9705326 27.5032728,46.3515 L27.3281299,46.5450038 C27.019055,46.8780071 26.5104177,46.8858811 26.1920568,46.5625908 C26.0781579,46.4469284 25.9995698,46.2985641 25.9662118,46.1362248 C25.8950444,45.7898823 25.8237834,45.5025522 25.752429,45.2742344 C24.8649249,42.4344255 22.8935341,40.1077734 20.3494257,38.8289574 C20.1787381,38.74316 19.9707065,38.6523707 19.7253308,38.5565897 L19.5342981,38.4838148 C19.116261,38.3282239 18.8979602,37.8476202 19.0467096,37.4103562 C19.0990052,37.2566282 19.1929555,37.1221497 19.317093,37.0233355 C19.6886679,36.7275593 20.0163899,36.511989 20.3002588,36.3766247 C21.0768348,36.0063107 21.9399732,35.8 22.8492271,35.8 Z M50.5492271,35.8 C53.946504,35.8 56.7,38.6801379 56.7,42.2336661 C56.7,43.3510339 56.4277567,44.4018223 55.9488594,45.3174254 C55.7875456,45.625841 55.5390167,45.9705326 55.2032728,46.3515 L55.0281299,46.5450038 C54.719055,46.8780071 54.2104177,46.8858811 53.8920568,46.5625908 C53.7781579,46.4469284 53.6995698,46.2985641 53.6662118,46.1362248 C53.5950444,45.7898823 53.5237834,45.5025522 53.452429,45.2742344 C52.5649249,42.4344255 50.5935341,40.1077734 48.0494257,38.8289574 C47.8787381,38.74316 47.6707065,38.6523707 47.4253308,38.5565897 L47.2342981,38.4838148 C46.816261,38.3282239 46.5979602,37.8476202 46.7467096,37.4103562 C46.7990052,37.2566282 46.8929555,37.1221497 47.017093,37.0233355 C47.3886679,36.7275593 47.7163899,36.511989 48.0002588,36.3766247 C48.7768348,36.0063107 49.6399732,35.8 50.5492271,35.8 Z" id="Combined-Shape" fill="#FFFFFF" fill-rule="nonzero"></path>
            </g>
        </g>
    </g>
</svg>