<?xml version="1.0" encoding="UTF-8"?>
<svg width="80px" height="68px" viewBox="0 0 80 68" version="1.1" xmlns="http://www.w3.org/2000/svg" xmlns:xlink="http://www.w3.org/1999/xlink">
    <!-- Generator: Sketch 64 (93537) - https://sketch.com -->
    <title>reveal-plain</title>
    <desc>Created with Sketch.</desc>
    <defs>
        <linearGradient x1="100%" y1="87.0453453%" x2="0%" y2="12.9546547%" id="linearGradient-1">
            <stop stop-color="#3ABEFA" offset="0%"></stop>
            <stop stop-color="#80DFFD" offset="100%"></stop>
        </linearGradient>
    </defs>
    <g id="Page-1" stroke="none" stroke-width="1" fill="none" fill-rule="evenodd">
        <g id="Products----White---Blue-Title" transform="translate(-87.000000, -686.000000)">
            <g id="reveal-plain" transform="translate(84.000000, 686.000000)">
                <path d="M33.0255842,0.614323941 C36.3503894,0.204774647 39.6751947,0 43,0 C46.3248053,0 49.6496106,0.204774647 52.9744158,0.614323941 L52.9744185,0.614302445 C69.8344079,2.69111482 82.5,17.0125813 82.5,34 C82.5,34 82.5,34 82.5,34 C82.5,34 82.5,34 82.5,34 C82.5,50.9874187 69.8344079,65.3088852 52.9744185,67.3856976 C49.6496106,67.7952254 46.3248053,68 43,68 C39.6751947,68 36.3503894,67.7952254 33.0255842,67.3856761 L33.0255815,67.3856976 C16.1655921,65.3088852 3.5,50.9874187 3.5,34 C3.5,34 3.5,34 3.5,34 C3.5,34 3.5,34 3.5,34 C3.5,17.0125813 16.1655921,2.69111482 33.0255815,0.614302445 Z" id="Rectangle" fill="url(#linearGradient-1)"></path>
                <g id="Search" transform="translate(20.500000, 11.500000)" fill="#FFFFFF" fill-rule="nonzero">
                    <path d="M17.9899738,-3.71248984e-14 C27.9116151,-0.013672159 35.9657825,8.01831053 35.9795111,17.9399423 C35.9848543,21.8124321 34.7387355,25.5829796 32.4268608,28.6896573 L42.1383119,36.9038344 C43.6977529,38.234651 43.8830896,40.5776565 42.5522749,42.1370976 C41.2214584,43.6965386 38.8784528,43.8818752 37.3190118,42.5510606 C37.170341,42.4241862 37.0319232,42.2857683 36.9050488,42.1370976 L28.6888832,32.4271615 C20.7105547,38.3402859 9.44928216,36.6661018 3.53621461,28.6877828 C-2.37690975,20.7094543 -0.702725691,9.44818173 7.27559335,3.53511417 C10.2560922,1.32612309 13.8437931,0.0952731415 17.5452974,0.00530902617 L17.9899738,-3.71248984e-14 Z M17.9899731,4.28722869 C10.5262088,4.28722869 4.45627158,10.2549225 4.29137252,17.6790992 L4.28793108,17.989182 C4.28793108,25.4529103 10.2555716,31.5229688 17.6797118,31.6878712 L17.9899731,31.6913127 C25.5574008,31.6913127 31.6920151,25.5566984 31.6920151,17.9892707 C31.6920151,10.421843 25.5574008,4.28722869 17.9899731,4.28722869 Z M17.9905563,6.5 C24.3333586,6.5 29.4742056,11.6408471 29.4742056,17.9836494 C29.4742056,19.9780736 28.9659205,21.8536583 28.0718071,23.4879466 C27.7594754,24.058836 27.2720259,24.6993607 26.6094586,25.4095204 L26.3527817,25.6790892 C25.775731,26.2734771 24.8260923,26.2875316 24.2317044,25.7104808 C24.0190523,25.5040313 23.8723262,25.2392114 23.810046,24.9494469 C23.6771746,24.3312495 23.5441286,23.8183851 23.410908,23.4108537 C21.7539153,18.341991 18.0732786,14.1890777 13.3233637,11.9064796 C12.9914074,11.7469562 12.5837975,11.5777648 12.1005342,11.3989053 L11.8014998,11.2904239 C11.0210139,11.0127049 10.6134408,10.1548605 10.8911597,9.37437459 C10.9887968,9.09998069 11.1642045,8.85994591 11.3959723,8.68356929 C12.0897122,8.1556292 12.7015774,7.77085121 13.2315678,7.52923532 C14.6814549,6.86825031 16.2929562,6.5 17.9905563,6.5 Z" id="Combined-Shape"></path>
                </g>
            </g>
        </g>
    </g>
</svg>