<?xml version="1.0" encoding="UTF-8"?>
<svg width="24px" height="24px" viewBox="0 0 24 24" version="1.1" xmlns="http://www.w3.org/2000/svg" xmlns:xlink="http://www.w3.org/1999/xlink">
    <!-- Generator: Sketch 64 (93537) - https://sketch.com -->
    <title>segment</title>
    <desc>Created with Sketch.</desc>
    <g id="Page-1" stroke="none" stroke-width="1" fill="none" fill-rule="evenodd">
        <path d="M4.12162613,19.023207 C3.35699677,19.023207 2.73725534,19.6429485 2.73725534,20.4075778 C2.73725534,21.1722072 3.35699677,21.7920766 4.12162613,21.7920766 C4.88612749,21.7920766 5.50599692,21.1722072 5.50599692,20.4075778 C5.50599692,19.6429485 4.88612749,19.023207 4.12162613,19.023207 Z M19.3870787,2.29159621 C18.6224494,2.29159621 18.0027079,2.91133764 18.0027079,3.675967 C18.0027079,4.44059635 18.6224494,5.06033779 19.3870787,5.06033779 C20.1517081,5.06033779 20.7714495,4.44059635 20.7714495,3.675967 C20.7714495,2.91338553 20.1549079,2.29454004 19.3923264,2.29159621 L19.3870787,2.29159621 Z M9.40268185,7.85860652 L9.40268185,9.54126627 C9.40268185,9.79467658 9.60892901,10 9.86319408,10 L23.5448515,10 C23.7970732,9.99707408 24,9.79251394 24,9.54126627 L24,7.85860652 C24,7.60532342 23.7938806,7.4 23.5396155,7.4 L9.85783038,7.4 C9.60458696,7.40152657 9.4,7.60634113 9.4,7.85860652 L9.40268185,7.85860652 Z M14.6405915,15.1518474 L14.6405915,13.4615737 C14.6405915,13.2066119 14.433883,13.0000314 14.1790492,13.0000314 L0.466789966,13.0000314 C0.211956179,12.9970876 0.00294383582,13.2013642 0,13.456198 C0,13.4579899 0,13.4597818 0,13.4615737 L0,15.1518474 C0,15.4066812 0.206580479,15.6132617 0.461414266,15.6132617 L14.1738015,15.6132617 C14.4286353,15.6162055 14.6376476,15.4119289 14.6405915,15.1570951 C14.6405915,15.1554312 14.6405915,15.1536393 14.6405915,15.1518474 Z M23.9042028,12.9980538 C23.8277911,12.8996273 23.7143894,12.8367828 23.5903643,12.8239835 L21.9053383,12.652601 C21.6571601,12.6262345 21.4333006,12.8032486 21.4016864,13.0507868 C20.69107,18.3129573 15.8491001,22.0026076 10.5870575,21.2919912 C9.85865016,21.1936927 9.14381003,21.0120708 8.45687234,20.7508374 C8.22162146,20.6614984 7.95859613,20.7795078 7.86874514,21.0145027 L7.21738947,22.5781915 C7.11870697,22.8115224 7.22788488,23.0808194 7.46134386,23.1795019 C7.4678715,23.1823178 7.47439914,23.1848776 7.48118276,23.1873095 C13.7825273,25.6117503 20.8561808,22.4687576 23.2804936,16.167285 C23.631706,15.2545679 23.8720766,14.302941 23.9964857,13.3330111 C24.0114608,13.2135937 23.9781827,13.0930245 23.9042028,12.9980538 Z M0.100218411,9.54059991 C0.0336621226,9.43462182 0.0136952362,9.305861 0.0447975015,9.18465176 C1.43403202,3.7816891 6.30352044,0.00346782064 11.8822173,1.13686838e-13 C13.2493091,-0.00190787955 14.6070573,0.226303393 15.8983773,0.675046365 C16.1422037,0.763105454 16.2686607,1.03201846 16.1807296,1.27584486 C16.1806016,1.27597285 16.1806016,1.27610084 16.1804736,1.27635683 L15.581851,2.85847659 C15.491104,3.08822378 15.2346063,3.20482527 15.0017873,3.12214188 C13.9981953,2.77489725 12.9441741,2.59673119 11.8822173,2.5948113 C9.68432388,2.59263542 7.55375471,3.353169 5.8541375,4.74662728 C4.25704257,6.03922719 3.11355435,7.8070646 2.58955157,9.79376979 C2.52977891,10.0369562 2.28416061,10.1856839 2.04110216,10.1260393 L0.390250235,9.75690785 C0.267889059,9.72785347 0.162934913,9.64952184 0.100218411,9.54059991 L0.100218411,9.54059991 Z" id="segment" fill="#FFFFFF"></path>
    </g>
</svg>