<svg height="28" width="30" xmlns="http://www.w3.org/2000/svg" xmlns:xlink="http://www.w3.org/1999/xlink"><mask id="a" fill="#fff"><path d="m28.144 11.764h-28.144v-11.587h28.144z" fill="#fff" fill-rule="evenodd"/></mask><mask id="b" fill="#fff"><path d="m28.144 11.764h-28.144v-11.587h28.144z" fill="#fff" fill-rule="evenodd"/></mask><g fill="none"><path d="m18.545 3.035h-17.116a1.428 1.428 0 1 1 0-2.857h17.116a1.428 1.428 0 1 1 0 2.857" fill="#93c8a2" mask="url(#a)" transform="translate(0 16.071)"/><path d="m14.875 11.786c-1.394 0-2.771-.207-4.093-.617a1.429 1.429 0 0 1 .846-2.73c1.047.325 2.14.49 3.247.49 4.848 0 9.056-3.112 10.474-7.744a1.427 1.427 0 0 1 1.784-.945 1.426 1.426 0 0 1 .948 1.782c-1.787 5.84-7.095 9.765-13.206 9.765" fill="#43af79" mask="url(#b)" transform="translate(0 16.071)"/><path d="m28.321 11.848h-17.115a1.428 1.428 0 1 1 0-2.857h17.114a1.428 1.428 0 1 1 0 2.857" fill="#93c8a2"/><path d="m3.036 11.849a1.429 1.429 0 0 1 -1.366-1.849c1.787-5.838 7.094-9.76 13.205-9.76 1.395 0 2.773.207 4.093.617a1.429 1.429 0 1 1 -.846 2.73 11.05 11.05 0 0 0 -3.247-.487c-4.846 0-9.056 3.111-10.474 7.743a1.43 1.43 0 0 1 -1.365 1.01" fill="#43af79"/><path d="m24.783 4.976a1.429 1.429 0 1 1 -2.857 0 1.429 1.429 0 0 1 2.857 0m-16.96 18.148a1.429 1.429 0 1 1 -2.856 0 1.429 1.429 0 0 1 2.857 0" fill="#93c8a2"/></g></svg>