<svg height="36" viewBox="0 0 168 36" width="168" xmlns="http://www.w3.org/2000/svg" xmlns:xlink="http://www.w3.org/1999/xlink"><mask id="a" fill="#fff"><path d="m35.4609 14.823h-35.4609v-14.60025h35.4609z" fill="#fff" fill-rule="evenodd"/></mask><mask id="b" fill="#fff"><path d="m35.4609 14.823h-35.4609v-14.60025h35.4609z" fill="#fff" fill-rule="evenodd"/></mask><g fill="none"><path d="m60.2694 16.9137-2.94525-.639c-1.47375-.3195-2.2851-1.2285-2.2851-2.5605 0-1.6929 1.503-2.97 3.4965-2.97 2.7585 0 3.573 2.0295 3.7575 2.6523.0585.207.2025.3825.396.47925.189.09675.4005.11115.603.0405l1.5525-.54765c.3868979-.1374087.5998836-.5523362.486-.9468-.4005-1.4085-1.872-4.6845-6.8625-4.6845-3.6945 0-6.813 2.826-6.813 6.17175 0 2.8755 1.88685 4.9995 5.049 5.688l2.808.612c1.6902.3555 2.7 1.386 2.7 2.754 0 1.746-1.4355 2.8305-3.7485 2.8305-2.718 0-4.0275-1.782-4.347-3.4515-.0408717-.2177454-.1731961-.4074926-.3633995-.5210982-.1902033-.1136056-.4200056-.1401513-.6311005-.0729018l-1.7055.5445c-.3711487.1130696-.5979165.4871396-.5265.8685.531 2.7675 2.80485 5.7195 7.605 5.7195 4.0563 0 7.1154-2.6415 7.1154-6.1425 0-2.9565-1.9512-5.0805-5.355-5.832zm17.42445 2.69235c.009.0585-.018.1035-.036.1215-.0301774.0373425-.0757397.0588811-.12375.058505h-6.255c-.0504553 0-.0981006-.0232348-.12915-.063005-.028899-.0333579-.0405515-.0783031-.0315-.1215.28575-1.3041 1.404-2.619 3.258-2.619 1.82115 0 3.06.9765 3.31425 2.61585zm-3.3417-5.544c-3.294 0-6.7005 2.754-6.7005 7.3665 0 2.223.729 4.122 2.1105 5.4855 1.2798 1.2645 3.0285 1.962 4.923 1.962 2.8215 0 5.1075-1.4742 6.1155-3.942.081-.2025.0765-.4275-.0108-.6255-.0870203-.1942032-.2508327-.3435088-.45225-.4122l-1.377-.477c-.3821759-.1312667-.8010192.0535575-.96165.42435-.594 1.3995-1.71 2.106-3.3165 2.106-1.944 0-3.4245-1.3095-3.681-3.25935-.0065513-.0442223.0075472-.0890058.03825-.1215.018-.0225.0585-.0585.1215-.0585h9.1278c.4095 0 .7515-.3195.774-.7272.009-.1305.0135-.2745.0135-.4167 0-4.509-2.5785-7.30935-6.7275-7.30935zm15.543 10.944c-2.1915 0-3.555-1.521-3.555-3.969 0-2.412 1.395-3.9708 3.555-3.9708 2.0925 0 3.4983 1.593 3.4983 3.969 0 2.3733-1.4067 3.969-3.49875 3.969zm5.841-10.53h-1.6515c-.4275 0-.77625.34785-.77625.7965-.0002998.0648542-.0392499.1232793-.099.1485-.0315.0135-.0945.0315-.1512-.0225-.8505-.7776-2.0475-1.17225-3.555-1.17225-3.73635 0-6.4485 2.8665-6.4485 6.813 0 3.9294 2.71215 6.7815 6.4485 6.7815 1.3815 0 2.6325-.4536 3.5235-1.2771.0585-.054.1215-.0405.153-.027.0225.009.099.0495.099.1485v.567c0 2.745-1.2015 4.02525-3.7755 4.02525-1.6335 0-2.916-1.0125-3.2625-2.5776-.045-.2025-.1665-.3735-.342-.48285s-.387-.144-.5895-.099l-1.6218.3735c-.4143511.0985946-.6733607.5109283-.5823.927.5805 2.844 3.1527 4.7565 6.3945 4.7565 2.4165 0 4.257-.73575 5.472-2.187 1.0035-1.1997 1.5345-2.86515 1.5345-4.81635v-11.88765c0-.4275-.3465-.774-.774-.774zm19.6335-.3888c-1.827 0-3.31335.6894-4.2993 1.998-.03389.0492657-.091053.0772498-.15075.0738-.044276.0005301-.085461-.0226365-.108-.06075-.82665-1.278-2.2536-2.0115-3.915-2.0115-1.32165 0-2.592.4644-3.4866 1.27575-.044252.0462612-.113169.0589565-.171.0315-.056535-.0232231-.092502-.0793324-.09-.1404 0-.4275-.3483-.774-.7758-.774h-1.5687c-.4275 0-.774.3465-.774.774v12.4335c0 .4275.3483.7749.7758.7749h1.6515c.4275 0 .774-.3492.774-.7767v-7.57935c0-1.84185 1.125-3.0798 2.8035-3.0798 2.196 0 2.5245 1.72215 2.5245 2.74815v7.9245c0 .4275.3465.774.774.774h1.67985c.4275 0 .774-.3483.774-.7758v-7.61805c0-1.7982 1.143-3.0537 2.7765-3.0537 2.19735 0 2.5245 1.7235 2.5245 2.7495v7.9245c0 .4275.3465.774.774.774h1.6515c.4275 0 .774-.3483.774-.7758v-8.2035c0-3.726-2.4705-5.39235-4.9185-5.39235zm11.1645 5.7096c-.050212-.000167-.097666-.0229849-.12915-.0621-.027709-.033246-.038654-.0773571-.0297-.1197.2862-1.305 1.404-2.619 3.2598-2.619 1.8207 0 3.06.9765 3.3138 2.6145.009.0585-.01935.1035-.036.1215-.032369.0338242-.076939.0532727-.12375.054h-6.255zm3.0735-5.724c-3.294 0-6.7005 2.7558-6.7005 7.3665 0 2.2257.729 4.12335 2.1087 5.4882 1.278 1.2645 3.024 1.9575 4.923 1.9575 2.817 0 5.103-1.476 6.1155-3.9465.081-.2025.0765-.4275-.0135-.6255s-.252-.342-.4545-.414l-1.377-.4761c-.3825-.13185-.8055.054-.9621.4239-.594 1.3959-1.71 2.106-3.3165 2.106-1.944 0-3.4245-1.3122-3.681-3.2625-.006945-.0446858.006235-.0901547.036-.1242.018-.0225.0585-.05625.1215-.05625h9.1305c.4095 0 .75015-.3195.774-.72765.00765-.1305.0135-.2745.0135-.4185 0-4.509-2.5785-7.3125-6.7275-7.3125zm16.5465.02835c-1.39725 0-2.62215.4761-3.5415 1.377-.043152.0434573-.108557.0559663-.1647.0315-.057882-.0252587-.09508-.0826493-.0945-.1458v-.099c0-.4275-.3483-.774-.7758-.774h-1.62c-.4275 0-.7758.3465-.7758.774v12.43125c0 .4275.3465.77535.774.77535h1.6785c.4275 0 .77625-.34875.77625-.77625v-7.25715c0-1.6236.73575-3.3588 2.8035-3.3588 1.8585 0 2.8017 1.02735 2.8017 3.05325v7.56c0 .4275.3465.774.774.774h1.6785c.4275 0 .7749-.351.7749-.7785v-8.00055c0-3.447-1.9521-5.589-5.0895-5.589zm12.91005 3.3669h1.9575c.4275 0 .774-.34875.774-.7758v-1.4283c0-.4275-.3465-.774-.774-.774h-1.9575c-.086985 0-.1575-.0705152-.1575-.1575v-3.2913c0-.4275-.3492-.7749-.77625-.7749h-1.458c-.4275 0-.774.3474-.774.7749v1.701c0 .7965-.3051 1.74735-1.7496 1.74735h-.24885c-.4275 0-.774.3465-.774.774v1.4265c0 .4275.34785.774.774.774h1.6245c.08775 0 .1575.0675.1575.1575v6.8715c0 2.538 1.54575 4.113 4.032 4.113.693 0 1.2321-.099 1.49175-.1575.351-.081.5976-.3915.5976-.756v-1.32255c-.000289-.2200303-.093942-.429601-.257668-.5765944-.163727-.1469935-.382143-.2175982-.600932-.1942556-.1755.018-.3456.02835-.4788.02835-1.1295 0-1.5525-.414-1.5525-1.5255v-6.48c0-.0864.072-.1566.1575-.1566z" fill="#43af79"/><path d="m23.3667 3.82365h-21.5667c-.9945 0-1.8-.8055-1.8-1.8s.8055-1.8 1.8-1.8h21.5667c.9945 0 1.8.8055 1.8 1.8s-.8055 1.8-1.8 1.8" fill="#93c8a2" mask="url(#a)" transform="translate(0 20.25)"/><path d="m18.7425 14.85c-1.7568 0-3.492-.261-5.157-.77715-.949435-.2942134-1.480679-1.3023079-1.18665-2.2518.2943-.954 1.305-1.485 2.25225-1.188 1.3194.4095 2.6955.6165 4.0914.6165 6.10785 0 11.4111-3.9195 13.19715-9.756.139595-.45643545.4549718-.83862198.876613-1.06231551.4216412-.22369352.9149317-.27052966 1.371137-.13018449.9504.288 1.485 1.296 1.1943 2.2455-2.2518 7.35795-8.9388 12.30345-16.6392 12.30345" fill="#43af79" mask="url(#b)" transform="translate(0 20.25)"/><path d="m35.685 14.92875h-21.5658c-.9945 0-1.8-.8055-1.8-1.8s.8055-1.8 1.8-1.8h21.5658c.9945 0 1.8.8055 1.8 1.8s-.8055 1.8-1.8 1.8" fill="#93c8a2"/><path d="m3.825 14.9292c-.570906.0000785-1.10799935-.27068-1.44746803-.7296949s-.44105744-1.0518548-.27378197-1.5977051c2.25225-7.3575 8.93925-12.2994 16.63875-12.2994 1.75815 0 3.49335.261 5.157.7776.4560432.14128288.8372763.45795465 1.0598204.88034113.222544.42238649.2681665.91588247.1268296 1.37190887-.1408596.4563123-.4574896.83782774-.8800278 1.06036731-.4225381.22253956-.9162576.26781361-1.3722222.12583269-1.3185-.405-2.6955-.612-4.0914-.612-6.1065 0-11.41065 3.9195-13.1967 9.756-.23173513.7561103-.9295256 1.2726541-1.72035 1.2735" fill="#43af79"/><path d="m31.2264 6.2694c0 .99411255-.8058875 1.8-1.8 1.8s-1.8-.80588745-1.8-1.8.8058875-1.8 1.8-1.8 1.8.80588745 1.8 1.8m-21.36825 22.8663c0 .9941125-.80588745 1.8-1.8 1.8s-1.8-.8058875-1.8-1.8.80588745-1.8 1.8-1.8 1.8.8058875 1.8 1.8" fill="#93c8a2"/></g></svg>