<svg height="36" viewBox="0 0 168 36" width="168" xmlns="http://www.w3.org/2000/svg"><g fill="none" transform="translate(2)"><g fill="#007cc2"><path d="m23.8394649 18.3576628c-.0541806-2.1672241-1.9505017-3.9010034-4.2531773-3.8755066-2.3297659.0509935-4.1719064 1.8357662-4.1177257 4.0029904.0541806 2.167224 1.9505016 3.9010033 4.2531772 3.8755065 2.3026756-.0254967 4.1448161-1.8357662 4.1177258-4.0029903z"/><path d="m11.2424749 21.5957505c1.3003345-.7649026 3.2779264.0254968 4.415719 1.7592761 1.1377927 1.7337792 1.0023412 3.7480228-.2979932 4.5129254s-3.2779265-.0254967-4.4157191-1.759276c-1.13779263-1.7592761-.97525083-3.7735196.2979933-4.5129255z"/><path d="m7.23311037 26.006689c1.11070234-.4334448 2.60066889.5864253 3.33210703 2.2437144.7314381 1.6827856.4334448 3.3910681-.67725753 3.824513-1.11070234.4334448-2.6006689-.5609286-3.33210703-2.2437144-.73143812-1.6827857-.40635451-3.3910682.67725753-3.824513z"/><path d="m3.60301004 29.3977572c.75852842-.2804642 1.89632106.7903994 2.54648829 2.3966948.62307692 1.6062956.51471572 3.1106041-.24381271 3.3655716-.75852842.2804643-1.92341137-.7903993-2.54648829-2.3966949-.65016723-1.6062954-.54180602-3.1106039.24381271-3.3655715z"/><path d="m14.4120401 8.15896124c1.4628763.40794807 2.1672241 2.32020466 1.5712375 4.25795786-.5959866 1.9632501-2.3026756 3.212591-3.7655518 2.8046429-1.4628763-.4079479-2.1672241-2.3202045-1.5712375-4.2834546.5959866-1.93775328 2.3026756-3.18709422 3.7655518-2.77914616z"/><path d="m9.07525083 3.67153256c1.16488297.30596105 1.67959867 1.96325005 1.16488297 3.69702931-.51471574 1.75927603-1.84214049 2.93212673-3.00702343 2.62616565-1.16488295-.30596105-1.67959866-1.93775329-1.16488295-3.72252606.51471573-1.73377926 1.86923077-2.90662994 3.00702341-2.6006689z"/><path d="m5.03879599.22947079c.81270902.15298052 1.16488294 1.63179224.78561873 3.314578-.37926422 1.657289-1.32742476 2.88113318-2.14013378 2.72815267-.78561873-.15298053-1.16488295-1.63179225-.78561873-3.31457801.40635451-1.68278575 1.35451505-2.88113319 2.14013378-2.72815266z"/></g><g fill="#959ba1"><ellipse cx="8.425077" cy="17.872526" rx="2.302568" ry="3.08509" transform="matrix(.99982748 -.01857431 .01857431 .99982748 -.330516 .159573)"/><path d="m3.11538462 22.9725753c-.29799331-1.5553021.270903-2.9576235 1.27324414-3.1361007 1.00234113-.1529806 2.03177258.9688765 2.32976588 2.5496753.29799332 1.555302-.270903 2.9576235-1.27324414 3.1361007-1.00234114.1529805-2.05886288-.9943734-2.32976588-2.5496753z"/><path d="m3.30501672 26.0576824c-.43344482-1.4023214-1.35451505-2.371198-2.05886287-2.167224-.70434783.203974-.94816054 1.4788117-.51471572 2.8811331.43344482 1.4023216 1.35451504 2.3711982 2.05886287 2.1672242.73143813-.1784773.94816053-1.4788117.51471572-2.8811333z"/><path d="m6.42040134 12.748377c-.02709031-1.5298053-.83979933-2.77914623-1.78795987-2.75364948-.94816053.02549678-1.67959867 1.27483778-1.65250836 2.80464288.0270903 1.5298053.81270903 2.7536495 1.76086956 2.7536495.97525084-.0254968 1.73377927-1.2748378 1.67959867-2.8046429z"/><path d="m3.00702341 8.64339956c-.0270903-1.37682471-.67725752-2.47318512-1.43578595-2.44768836-.75852843.02549674-1.38160535 1.14735392-1.35451505 2.49868188.0270903 1.37682472.67725752 2.47318512 1.43578595 2.44768832.78561873 0 1.38160536-1.1218571 1.35451505-2.49868184z"/></g><g transform="translate(29.528428 9.688767)"><g fill="#007cc2"><path d="m17.3377926 4.18146764h-6.7996655v11.01459776h-3.79264215v-11.01459776h-6.71839465v-2.9321267h17.3107023z"/><path d="m35.6237458 15.221562h-14.6829432v-13.97222106h14.6829432v2.9321267h-10.890301v2.65166241h9.6170569v2.77914617h-9.6170569v2.75364948h10.890301z"/><path d="m58.2712374 15.221562h-4.0364547l-1.4628764-2.8301396h-9.0210702l-1.4899665 2.8301396h-3.9280937l7.5852843-13.9467243h4.6866221zm-6.8538461-5.40531175-3.1153846-5.60928586-3.1695652 5.60928586z"/><path d="m74.0377926 15.221562h-13.409699v-13.97222106h3.7926422v10.88711396h9.6170568z"/><path d="m80.9458194 15.221562h-3.7926422v-13.97222106h3.7926422z"/><path d="m102.807692 9.38280543c0 4.61491247-2.302675 6.06822737-9.1023408 6.06822737-6.7996656 0-8.8856188-1.2493409-8.8856188-6.06822737v-8.13346449h3.7113713v7.87849696c0 2.9576234 1.8150501 3.2635845 5.2013378 3.2635845 3.1695652 0 5.3909699-.5099351 5.3909699-3.2635845v-7.87849696h3.7113716v8.13346449z"/><path d="m130.331438 15.221562h-4.036455l-1.81505-10.83612033-4.632441 10.83612033h-4.307358l-4.52408-10.83612033-1.869231 10.83612033h-3.901004l2.600669-13.9467243h5.607693l4.198996 10.2241983 4.4699-10.2241983h5.553512z"/></g><path d="m132.254849 1.14735392c0 .50993508-.433444.91788314-1.002341.91788314-.568896 0-1.002341-.40794806-1.002341-.91788314 0-.50993507.433445-.91788313 1.002341-.91788313.568897 0 1.002341.40794806 1.002341.91788313zm-1.760869 0c0 .40794807.325083.73940587.758528.73940587.433446 0 .731439-.3314578.731439-.71390911 0-.40794806-.325085-.73940586-.758529-.73940586-.406355-.02549676-.731438.30596104-.731438.7139091zm.595987.48443832h-.216722v-.91788313c.08127-.02549675.216722-.02549675.379263-.02549675.189632 0 .270903.02549675.325084.07649026.05418.0509935.108362.10198701.108362.20397403s-.081272.17847727-.189633.20397403c.108361.02549676.162541.10198702.189633.22947079.02709.12748376.05418.20397403.08127.22947077h-.243813c-.02709-.02549674-.054181-.12748376-.081271-.22947077-.02709-.10198702-.081271-.15298053-.189632-.15298053h-.108361v.3824513zm0-.53543182h.108361c.135451 0 .216722-.05099351.216722-.12748377s-.054181-.12748377-.216722-.12748377c-.054181 0-.108361 0-.135452 0v.25496754z" fill="#007dc2"/></g></g></svg>