<?xml version="1.0" encoding="UTF-8"?>
<svg width="210px" height="51px" viewBox="0 0 210 51" version="1.1" xmlns="http://www.w3.org/2000/svg" xmlns:xlink="http://www.w3.org/1999/xlink">
    <!-- Generator: Sketch 63.1 (92452) - https://sketch.com -->
    <title>Group</title>
    <desc>Created with Sketch.</desc>
    <g id="Page-1" stroke="none" stroke-width="1" fill="none" fill-rule="evenodd">
        <g id="Group" fill="#FF5745" fill-rule="nonzero" x="0" y="0">
            <path d="M38,22 C33.115807,22 29.2084576,24.4010175 27.2809661,28.7570924 C26.3806645,30.7937764 26.0161128,33.2585025 26,36.1014983 L26,36.4419411 C26,47.300274 31.5871069,50.9993541 38.8136893,50.9993541 C42.7939481,51.0373326 46.6024439,49.3989996 49.2869971,46.4939622 C49.325165,46.45289 49.3451473,46.3984448 49.3424996,46.3427358 C49.3398519,46.2870268 49.3147938,46.2346732 49.2728984,46.1973191 L45.8489324,43.1412976 C45.7672113,43.0641897 45.6386093,43.0641897 45.5568882,43.1412976 C43.5669597,45.0684825 41.7764269,45.9166031 38.9284928,45.9166031 C34.2034197,45.9166031 31.7482347,43.0198531 31.7482347,38.1242461 L49.740169,38.1242461 C49.853144,38.1243728 49.9462696,38.0367035 49.9516493,37.9251567 L50,33.6805719 C50.0060299,26.7821261 45.5891138,22 38,22 L38,22 Z M44.4813601,33.397865 L31.8489396,33.397865 L31.8489396,32.9339869 C31.9033202,31.6199972 32.0140956,30.9849022 32.5699865,30.0113553 C33.4561895,28.4027134 35.5065409,27.2997584 38.1651498,27.2997584 C40.8237587,27.2997584 42.8177154,28.4007225 43.7059325,30.0113553 C44.2598093,30.9849022 44.4269794,31.6219881 44.4813601,32.9339869 L44.4813601,33.397865 Z" id="Shape"></path>
            <path d="M95,22 C90.115809,22 86.2084585,24.4010175 84.2809665,28.7570924 C83.3806646,30.7937764 83.0161128,33.2585025 83,36.1014983 L83,36.4419411 C83,47.300274 88.5871085,50.9993541 95.8136929,50.9993541 C99.7939529,51.0373326 103.60245,49.3989996 106.287004,46.4939622 C106.325172,46.45289 106.345154,46.3984448 106.342506,46.3427358 C106.339859,46.2870268 106.3148,46.2346732 106.272905,46.1973191 L102.848938,43.1412976 C102.767217,43.0641897 102.638615,43.0641897 102.556894,43.1412976 C100.566965,45.0684825 98.7764314,45.9166031 95.9284965,45.9166031 C91.2034221,45.9166031 88.7482363,43.0198531 88.7482363,38.1242461 L106.740176,38.1242461 C106.853151,38.1243728 106.946276,38.0367035 106.951656,37.9251567 L107,33.6805719 C107.004023,26.7821261 102.593148,22 95,22 Z M101.481365,33.397865 L88.8549836,33.397865 L88.8549836,32.9339869 C88.9113783,31.6199972 89.0221537,30.9849022 89.5760307,30.0113553 C90.4622339,28.4027134 92.5125859,27.2997584 95.1711956,27.2997584 C97.8298053,27.2997584 99.8237625,28.4007225 100.71198,30.0113553 C101.265857,30.9849022 101.433027,31.6219881 101.487408,32.9339869 L101.481365,33.397865 Z" id="Shape"></path>
            <path d="M0.711594813,22.2119712 L0.711594813,27.0524357 C0.711594813,27.1706244 0.807843851,27.2664352 0.926573056,27.2664352 L14.3166465,27.2664352 L0.0318540812,50.6739025 C-0.00904343496,50.7401061 -0.0106686141,50.8231777 0.0276085175,50.8909162 C0.0658856491,50.9586546 0.13804728,51.0004101 0.216121147,51 L23.7265513,51 C23.8452805,51 23.9415296,50.9041861 23.9415296,50.7859975 L23.9415296,45.945533 C23.9415296,45.8273443 23.8452805,45.7315335 23.7265513,45.7315335 L9.74477586,45.7315335 L23.9681459,22.3261043 C24.0090434,22.2599007 24.0106686,22.176829 23.9723915,22.1090906 C23.9341144,22.0413522 23.8619527,21.9995966 23.7838789,22 L0.928620468,22 C0.871603925,21.9994667 0.816706164,22.0214938 0.776005393,22.0612448 C0.735304621,22.1009958 0.712135242,22.1552142 0.711594813,22.2119712 L0.711594813,22.2119712 Z" id="Path"></path>
            <path d="M152.097423,15 L147.109913,15 C146.99555,15 146.90284,15.0940045 146.90284,15.209965 L146.90284,22.3427762 L143.207073,22.3427762 C143.152154,22.3427762 143.099484,22.3648975 143.06065,22.4042735 C143.021817,22.4436496 143,22.497055 143,22.5527412 L143,27.305949 C143,27.4219095 143.09271,27.515914 143.207073,27.515914 L146.896923,27.515914 L146.896923,42.4014331 C146.896923,48.5804033 151.328293,51 156.179727,51 C156.678675,51 156.984354,51 157.262424,50.9860023 C157.37292,50.9806612 157.459763,50.8882028 157.459637,50.7760373 L157.459637,45.9168472 C157.457095,45.860773 157.432514,45.8080658 157.391384,45.7704938 C157.350253,45.7329217 157.295998,45.7136137 157.240731,45.7168805 C156.964811,45.731073 156.688358,45.731073 156.412438,45.7168805 C153.679069,45.5889018 152.300552,44.1451425 152.300552,40.8576904 L152.300552,27.5079153 L157.792927,27.5079153 C157.90729,27.5079153 158,27.4139108 158,27.2979503 L158,22.5427429 C158,22.4267824 157.90729,22.3327779 157.792927,22.3327779 L152.304496,22.3327779 L152.304496,15.209965 C152.304496,15.0940045 152.211787,15 152.097423,15 L152.097423,15 Z" id="Path"></path>
            <path d="M179.079828,36.390409 C177.195334,35.0863367 174.42189,34.3636219 170.956594,33.7743007 C166.367037,32.9938483 165.80189,32.1257941 165.848148,30.3319481 C165.843803,29.31438 166.418645,28.3811012 167.334424,27.9189167 C168.77042,27.1703195 170.276809,27.1225367 171.692693,27.2439847 C173.329809,27.3833512 175.3933,27.9925819 176.859464,29.5733962 C176.895827,29.6158361 176.948472,29.6412735 177.004641,29.643543 C177.06081,29.6458126 177.115375,29.624707 177.15511,29.5853419 L180.610351,26.4953875 C180.652082,26.4615846 180.678353,26.4126093 180.683269,26.3594537 C180.688185,26.3062981 180.671333,26.2534146 180.636496,26.2126726 C179.984876,25.3844135 179.19928,24.668619 178.31155,24.0943018 C177.253229,23.4190287 176.10156,22.8992891 174.892511,22.5513156 C173.552296,22.1947712 172.171373,22.0100932 170.783631,22.0018134 C168.944717,21.9723654 167.117958,22.301836 165.407695,22.971406 C164.213688,23.4662875 163.143513,24.2137795 162.272235,25.161451 C161.421417,26.125855 160.837319,27.2918928 160.576794,28.546066 C160.262737,30.0098383 160.320788,31.527905 160.745735,32.963984 C161.054763,33.9428122 161.581152,34.8407729 162.286314,35.592038 C164.323659,37.7920378 167.515432,38.4171961 170.654914,38.976653 C172.79483,39.3589154 176.595997,39.5201823 176.521583,42.4329422 C176.449179,45.2640731 172.979861,46.1321273 170.652903,46.1321273 C167.953873,46.1321273 165.624905,45.186426 163.744433,43.2830778 C163.665309,43.201854 163.53535,43.1974481 163.450798,43.2731231 L160.069972,46.2973761 C159.98425,46.3736872 159.976194,46.5039526 160.051871,46.5900458 C162.527658,49.3514934 166.721008,51 171.008885,51 C176.499459,51 181.692376,48.3619913 181.984,42.7375575 C182.138862,39.8347524 181.169464,37.8358387 179.079828,36.390409 L179.079828,36.390409 Z" id="Path"></path>
            <circle id="Oval" cx="135" cy="13" r="4"></circle>
            <path d="M119.084838,22.3628148 L119.084838,18.3968303 C119.251295,15.4530275 121.273135,14.3161521 123.564959,14.2698723 C124.770597,14.2551811 125.975833,14.3224109 127.172197,14.4710891 C127.232328,14.4826346 127.294504,14.4666504 127.341396,14.4275913 C127.388287,14.3885323 127.414879,14.3305748 127.413762,14.2698723 L127.413762,9.5211541 C127.41063,9.42170164 127.337918,9.33789371 127.239185,9.31993723 C126.058425,9.10649702 124.8606,8.99941536 123.660367,9 L123.142727,9 C117.50756,9 113.50854,12.1309369 113.50854,17.9018368 L113.50854,22.3628148 L109.213146,22.3628148 C109.099281,22.3626868 109.005422,22.4512929 109,22.5640317 L109,27.3489689 C109,27.4050033 109.022456,27.4587426 109.062429,27.4983648 C109.102402,27.5379871 109.156616,27.5602466 109.213146,27.5602466 L113.51057,27.5602466 L113.51057,50.7887223 C113.51057,50.9054077 113.605998,51 113.723716,51 L118.865603,51 C118.98332,51 119.078748,50.9054077 119.078748,50.7887223 L119.078748,27.5602466 L132.439941,27.5602466 L132.439941,50.7887223 C132.439941,50.9054077 132.53537,51 132.653087,51 L137.786854,51 C137.904571,51 138,50.9054077 138,50.7887223 C138,48.3197913 138,25.0329627 138,22.5660439 C138,22.4493584 137.904571,22.3547662 137.786854,22.3547662 L119.084838,22.3628148 Z" id="Path"></path>
            <path d="M74.5057314,24.5803292 C72.6579983,22.9024102 70.2169376,22 67.0306245,22 C64.8071856,22 62.8978614,22.3243037 61.0234388,23.5429603 C60.6257709,23.8045234 60.2458433,24.0911589 59.8860565,24.4010558 C59.7977759,24.4755852 59.7115483,24.5521289 59.6253208,24.6327013 L59.6253208,22.5478919 C59.6253208,22.4310824 59.5288073,22.3363895 59.4097519,22.3363895 L54.2155689,22.3363895 C54.1583964,22.3363895 54.1035657,22.3586727 54.0631387,22.3983371 C54.0227117,22.4380015 54,22.491798 54,22.5478919 L54,50.7884976 C54,50.9053072 54.0965135,51 54.2155689,51 L59.4097519,51 C59.5288073,51 59.6253208,50.9053072 59.6253208,50.7884976 L59.6253208,32.0554282 C59.6253208,30.5648399 60.7627032,29.2353963 61.9863131,28.4860735 C63.4768178,27.5735917 66.0205304,27.4607904 67.7348161,27.7407793 C70.4756202,28.1859415 72.3767322,30.3593804 72.3767322,33.1592693 L72.3767322,50.7884976 C72.3767322,50.9053072 72.4732457,51 72.5923011,51 L77.7844311,51 C77.9034865,51 78,50.9053072 78,50.7884976 L78,33.1693408 C77.997947,30.0290338 77.1418306,26.9652705 74.5057314,24.5803292 Z" id="Path"></path>
            <path d="M197.99387,4.29502762 L197.99387,7.04483031 L181,15.9611681 L181,13.2318863 L187.769351,9.67971586 L181,7.97237569 L181,5.47703236 L190.979327,8.00315706 L194.808413,5.99415943 L181,2.50560379 L181,0 L197.99387,4.29502762 Z M181,21.7111287 L197.99387,26 L197.99387,23.5067088 L184.185457,20.0181531 L188.014543,18.0091555 L197.99387,20.5270718 L197.99387,18.0358327 L191.230649,16.3284925 L198,12.776322 L198,10.0552486 L181.00613,18.9715864 L181,21.7111287 Z" id="Shape"></path>
        </g>
    </g>
</svg>
